<svg xmlns="http://www.w3.org/2000/svg" viewBox="0 0 336.99 336.99"><defs><style>.cls-1{fill:#fff;}</style></defs><title>add-w</title><g id="Layer_2" data-name="Layer 2"><g id="Layer_1-2" data-name="Layer 1"><path class="cls-1" d="M146.45,0a7.66,7.66,0,0,0-6.91,7.63V143.43H7.63A7.65,7.65,0,0,0,0,151.06v38.76a7.65,7.65,0,0,0,7.63,7.63H139.54V329.36a7.66,7.66,0,0,0,7.63,7.63h42.64a7.65,7.65,0,0,0,7.63-7.63V197.45H329.35a7.66,7.66,0,0,0,7.64-7.63V151.06a7.66,7.66,0,0,0-7.64-7.63H197.44V7.64A7.65,7.65,0,0,0,189.81,0H146.45Z"/></g></g></svg>