<svg xmlns="http://www.w3.org/2000/svg" viewBox="0 0 332.29 344.66"><defs><style>.cls-1{fill:#333;}</style></defs><title>animation-g3</title><g id="Layer_2" data-name="Layer 2"><g id="Layer_1-2" data-name="Layer 1"><g id="Layer_2-2" data-name="Layer 2"><g id="Layer_1-2-2" data-name="Layer 1-2"><path class="cls-1" d="M311.43,179.77H277.51a41.27,41.27,0,0,1-12.6-1.51,34.92,34.92,0,0,1-8.88-8l-26.92-29.13v-.27a71,71,0,1,0-57-83.14h-68.4a3.5,3.5,0,0,0,0,7h67.41c0,2.1-.33,4.2-.33,6.36a70.61,70.61,0,0,0,5.12,26.27H32.47a3.5,3.5,0,0,0,0,7H179.09a71.27,71.27,0,0,0,10.77,14.92,30,30,0,0,0-3.4-.38H125.24A34.42,34.42,0,0,0,111.78,122,53.13,53.13,0,0,0,101,129.7L94.12,137H60.47a3.5,3.5,0,0,0,0,7H87.39L73.61,158.7h0l-.43.48L57,176.6H32.47a3.5,3.5,0,0,0,0,7h19.6a20.24,20.24,0,0,0,33.49,22h0l18.36-19.82h0l1.94-2.1H137l-24.23,51.1a39.73,39.73,0,0,0,13.3,49.64L110.51,300a42.38,42.38,0,0,1-5.38,3.5,41.39,41.39,0,0,1-8.62,0l-42,.59h0a20.27,20.27,0,0,0-2,40.49,3.57,3.57,0,0,0,1.13,0h1.13l54.17-.43a52.2,52.2,0,0,0,12.7-2.21,34.42,34.42,0,0,0,11.74-7.32l43.07-43.07h24.13a40.84,40.84,0,0,1,6.19,1.23,40.25,40.25,0,0,1,5.87,6.09l35.86,38.66h0A20.25,20.25,0,0,0,279,311l-.55-.6a3.55,3.55,0,0,0-.43-.7l-45.23-48.46A51.9,51.9,0,0,0,222,253.81a34.43,34.43,0,0,0-13.46-3.13H192.92l27.3-59.22,21.22,22.61a26.51,26.51,0,0,0,18.3,6.73,23.35,23.35,0,0,0,3.13,0H284.4a3.22,3.22,0,0,0,.76,0H310.9a2.35,2.35,0,0,0,.53,0,20.41,20.41,0,1,0,.9-40.81q-.45,0-.9,0ZM204.29,97.39H183.5a64.65,64.65,0,1,1,3.72,7h17.33a3.5,3.5,0,0,0,0-7h-.26Zm-133.7,108a13.35,13.35,0,0,1-9.1-23.15,3.57,3.57,0,0,0,.38-.49l5.38-6A20.32,20.32,0,0,0,86.91,194l-6.36,6.84h0a13.39,13.39,0,0,1-10,4.56Zm42-28.81,9.15-9.91a40,40,0,0,1,5.71-5.86,39.13,39.13,0,0,1,5.76-1.24h15.18l-8,17Zm15.83,153.19a27.66,27.66,0,0,1-9.1,5.65,46.27,46.27,0,0,1-10.77,1.78l-53.85.43a13.33,13.33,0,0,1,0-26.66h0l41.41-.53a40.46,40.46,0,0,0,10.77,0,34.54,34.54,0,0,0,7.91-5l17.34-17.28a39.38,39.38,0,0,0,14.32,3.45,3.52,3.52,0,0,0,1.46.32h18.2Zm19.76-78.62a3.5,3.5,0,0,0,0,7h61a27.78,27.78,0,0,1,10.45,2.48,46.2,46.2,0,0,1,8.67,6.09L272.56,314a4,4,0,0,0,.38.54,13.31,13.31,0,0,1-19,18.63h0l-35.75-38.55a40.46,40.46,0,0,0-7.76-7.54,34.22,34.22,0,0,0-9.1-2.1H149.9a3.57,3.57,0,0,0-1.13,0A32.79,32.79,0,0,1,116,252.19a32.27,32.27,0,0,1,3.12-14l25.36-54.65h9.15a3.5,3.5,0,0,0,0-7H148l8-17h30a3.5,3.5,0,0,0,0-7H132.67a34,34,0,0,0-8.61,2,40.49,40.49,0,0,0-7.65,7.43L96.06,183.86a13.3,13.3,0,0,1-18.25-19.33L106,134.65a46.06,46.06,0,0,1,8.83-6.3,27.71,27.71,0,0,1,10.44-2.42H185.2a22.08,22.08,0,0,1,9.26,2l19.28,8.89a21.92,21.92,0,0,1,8,6.35,3.42,3.42,0,0,0,.75,1.29l1,1.08a22.23,22.23,0,0,1,1.19,20.73l-8.24,17.88h0l-30.85,66.92Zm114.31-37.69a22.34,22.34,0,0,1-16.16-4.25L223.77,185,231,169.17a29.11,29.11,0,0,0,2.64-13l17.18,18.47a39.21,39.21,0,0,0,11.84,9.9,45.19,45.19,0,0,0,13.62,1.94h13.2a3.42,3.42,0,0,0,1.34,1.19,13.35,13.35,0,0,1-4,25.52Zm49.59,0H300.67a20.19,20.19,0,0,0,5.38-13.24,20.42,20.42,0,0,0-5.38-13.46h10.76a13.46,13.46,0,1,1,.33,26.92h0Z"/><path class="cls-1" d="M53.69,64.66h31.6a3.5,3.5,0,0,0,0-7H53.69a3.5,3.5,0,0,0,0,7Z"/><path class="cls-1" d="M46.09,140.47a3.48,3.48,0,0,0-3.48-3.5H3.5a3.5,3.5,0,0,0,0,7H42.59A3.5,3.5,0,0,0,46.09,140.47Z"/></g></g></g></g></svg>