<svg xmlns="http://www.w3.org/2000/svg" viewBox="0 0 513.99 477.27"><defs><style>.cls-1{fill:#999;}</style></defs><title>audio-g</title><g id="Layer_2" data-name="Layer 2"><g id="Layer_1-2" data-name="Layer 1"><path class="cls-1" d="M269.93.81a9.16,9.16,0,0,0-9.86,1.51L97.85,146.85H9.18A9.18,9.18,0,0,0,0,156V321.24a9.17,9.17,0,0,0,9.18,9.18H97.1L260.09,475a9.17,9.17,0,0,0,15.26-6.86V9.18A9.16,9.16,0,0,0,269.93.81Z"/><path class="cls-1" d="M335,156.65A9.17,9.17,0,1,0,326.74,173a73.46,73.46,0,0,1-.38,131.38,9.18,9.18,0,0,0,8.17,16.45A91.82,91.82,0,0,0,335,156.65Z"/><path class="cls-1" d="M383.28,110.85a9.18,9.18,0,1,0-10.55,15,137.71,137.71,0,0,1-.57,225.92,9.18,9.18,0,0,0,10.48,15.08,156.06,156.06,0,0,0,.64-256Z"/><path class="cls-1" d="M429.32,65A9.18,9.18,0,0,0,418,79.5a201.94,201.94,0,0,1-.13,318.39,9.18,9.18,0,0,0,11.31,14.47A220.31,220.31,0,0,0,429.32,65Z"/></g></g></svg>