<svg xmlns="http://www.w3.org/2000/svg" xmlns:xlink="http://www.w3.org/1999/xlink" viewBox="0 0 560.04 560.04"><defs><style>.cls-1{fill:url(#linear-gradient);}.cls-2{fill:#fff;}</style><linearGradient id="linear-gradient" x2="560.04" y2="560.04" gradientUnits="userSpaceOnUse"><stop offset="0" stop-color="#0288d1"/><stop offset="1" stop-color="#00897b"/></linearGradient></defs><title>audio-gra</title><g id="Layer_2" data-name="Layer 2"><g id="Layer_1-2" data-name="Layer 1"><rect class="cls-1" width="560.04" height="560.04"/><path class="cls-2" d="M438.9,81.42H200.58a39.84,39.84,0,0,0-39.72,39.72V359.46a39.84,39.84,0,0,0,39.72,39.72H438.9a39.83,39.83,0,0,0,39.72-39.72V121.14A39.84,39.84,0,0,0,438.9,81.42Zm-39.72,99.3H339.6V290A49.65,49.65,0,1,1,290,240.3a48.57,48.57,0,0,1,29.79,10.13V141h79.44Zm-278-19.86H81.42v278a39.84,39.84,0,0,0,39.72,39.72h278V438.9h-278Z"/></g></g></svg>