<svg xmlns="http://www.w3.org/2000/svg" viewBox="0 0 360 360"><defs><style>.cls-1{fill:#43a047;}.cls-2{fill:#fff;}</style></defs><title>check-g</title><g id="Layer_2" data-name="Layer 2"><g id="Layer_1-2" data-name="Layer 1"><circle class="cls-1" cx="180" cy="180" r="180"/><path class="cls-2" d="M290.17,64.58q-5.22,0-19.23,2t-18.12,3.77Q248.73,72.14,238,82.77t-31,39.35a638.13,638.13,0,0,0-38,60.63q-17.65,31.94-32.93,66.31-14.15-24.21-25.6-32.84t-19.31-8.66q-6.12,0-15.39,6.53T66.53,226.9q0,4.56,8.49,13.51a260.1,260.1,0,0,1,29.74,37.72q7.88,11.94,10.48,14.62t15.82,2.67q18.41,0,21.87-4.73,3.45-4.57,12.75-27.27A613.31,613.31,0,0,1,222.8,154.86Q257,103.18,285.44,76.7a78.9,78.9,0,0,0,6.86-6.53,5,5,0,0,0,1.17-3.08C293.47,65.42,292.37,64.58,290.17,64.58Z"/></g></g></svg>