<svg xmlns="http://www.w3.org/2000/svg" viewBox="0 0 420 446.23"><defs><style>.cls-1{fill:#bdbdbd;}</style></defs><title>close-g</title><g id="Layer_2" data-name="Layer 2"><g id="Layer_1-2" data-name="Layer 1"><g id="Layer_2-2" data-name="Layer 2"><g id="Layer_1-2-2" data-name="Layer 1-2"><path class="cls-1" d="M210,296.46,346,435.62c13.64,14.08,22.52,14.22,36.4,0l27.28-27.93c13.36-13.67,14.28-22.65,0-37.26L265.71,223.12,409.63,75.8c13.49-13.84,13.74-23.18,0-37.27L382.35,10.61C368.21-3.87,359.47-3.2,346,10.61L210,149.78,74.09,10.61C60.53-3.2,51.83-3.87,37.68,10.61L10.42,38.53C-3.34,52.6-3.1,62,10.42,75.8l143.9,147.32L10.42,370.43C-3.84,385-3.1,394,10.42,407.69l27.26,27.93c13.77,14.22,22.64,14.08,36.41,0Z"/></g></g></g></g></svg>