<svg xmlns="http://www.w3.org/2000/svg" viewBox="0 0 399.02 447.7"><defs><style>.cls-1{fill:#ccc;}</style></defs><title>computational-thinking-gc</title><g id="Layer_2" data-name="Layer 2"><g id="Layer_1-2" data-name="Layer 1"><path class="cls-1" d="M376.16,286.91l-.37-128.7a32.51,32.51,0,0,0-10-63.43h0a32.72,32.72,0,0,0-21.76,8.48L231.23,38.72a37.09,37.09,0,0,0,.73-6.27,30.89,30.89,0,0,0-9.59-22.86A32.09,32.09,0,0,0,199.51,0a32.5,32.5,0,0,0-32.45,32.45,32.28,32.28,0,0,0,.74,6.27l-113.22,66a32.89,32.89,0,0,0-22.13-8.85A32.5,32.5,0,0,0,0,128.34,30.89,30.89,0,0,0,9.59,151.2,31,31,0,0,0,24,159.31l.37,128.34a32.52,32.52,0,0,0,8.85,63.8h0A32.72,32.72,0,0,0,55,343l114,65.27a40.74,40.74,0,0,0-.74,7,30.89,30.89,0,0,0,9.59,22.86,32.11,32.11,0,0,0,22.87,9.59h0a32.5,32.5,0,0,0,32.45-32.45,50.14,50.14,0,0,0-.74-7L345.18,342.6a32.15,32.15,0,0,0,21.39,8.11h0A32.5,32.5,0,0,0,399,318.26a30.91,30.91,0,0,0-9.59-22.87A31.75,31.75,0,0,0,376.16,286.91ZM175.91,55l.37.37L139.4,119.49H64.91ZM114.32,276.59,128,298.34H75.23Zm-49.41,7,25.81-45,14,22.5Zm55.68-31-19.54-31.34L121,186.6l59.74,32.46Zm-6.27-90.35-46.1-25.07H128.7Zm-8.85,15.49L90.35,203.57,58.64,152.31ZM42,287.28l-.37-127.6H42l38,62ZM177.38,392.75,64.54,328.22a36.87,36.87,0,0,0,1.1-8.86v-2.95H139l44.25,71.92A22.56,22.56,0,0,0,177.38,392.75Zm13.28-26.92-31-49.78h30.61v49.78Zm0-67.49H149l-18.81-30.61,60.48-33.55Zm0-94.4-60.48-33.19,19.55-33.56h40.93Zm0-84.45H160.05l30.61-53.11Zm81.13,69.33,21,37.24-15.49,25.45L218,218.69Zm-8.48-51.63h64.17L278.8,164.48ZM284,275.48l42,22.86H270.32ZM293.18,260l9.59-16.23,17.33,31Zm-5.53-80,49.42-27.66L303.51,208ZM223.11,54.58l111.37,63.8a1.38,1.38,0,0,1-.36,1.11H253L218.69,58.27A14.84,14.84,0,0,0,223.11,54.58ZM208.36,76l24.34,43.52H208.36Zm0,61.22H243L263.31,173l-54.58,30.61V137.19Zm0,97L268.47,267l-18.81,31.34h-41.3Zm0,81.87H238.6l-30.24,50.52Zm15.49,76.7a33.27,33.27,0,0,0-7-5.53l42.78-71.17h74.5v2.21a27.42,27.42,0,0,0,1.47,9.59ZM349.6,290.23l-36.14-64.17,40.94-68.59,3.32,1.11.37,128C355.14,287.28,352.55,288.76,349.6,290.23Z"/></g></g></svg>