<svg xmlns="http://www.w3.org/2000/svg" viewBox="0 0 921.27 329.31">
  <defs>
    <style>
      .cls-1,.cls-2{fill:#ccc;}.cls-2{font-size:57.24px;font-family:Lato-Regular, Lato;}.cls-3{letter-spacing:-0.02em;}.cls-4{letter-spacing:0em;}
    </style>
  </defs>
  <title>
    drop_1
  </title>
  <g id="Layer_2" data-name="Layer 2">
    <g id="Layer_1-2" data-name="Layer 1">
      <path class="cls-1" d="M557.72,25.35l-15.8-19.1A16.52,16.52,0,0,0,528.84,0H392.43a16.9,16.9,0,0,0-13.19,6.25l-15.69,19.1a22.31,22.31,0,0,0-5.23,14.44v142.1a22.8,22.8,0,0,0,22.74,22.73H540.21A22.8,22.8,0,0,0,563,181.89V39.79A22.25,22.25,0,0,0,557.72,25.35ZM460.64,164.84l-62.53-62.53H437.9V79.58h45.47v22.73h39.79ZM382.42,22.74l9.21-11.37H528.05l10.68,11.37Z"/>
    </g>
  </g>
</svg>