<svg xmlns="http://www.w3.org/2000/svg" viewBox="0 0 300.58 383.6"><defs><style>.cls-1{fill:#ccc;}</style></defs><title>educational-videogames-gc</title><g id="Layer_2" data-name="Layer 2"><g id="Layer_1-2" data-name="Layer 1"><path class="cls-1" d="M151,0A150.82,150.82,0,0,0,0,151V374.64L24.06,352c3.78-3.31,9.44-3.31,12.74,0L70.3,383.6,103.8,352c3.78-3.31,9.44-3.31,12.74,0L150,383.6,183.54,352a8.83,8.83,0,0,1,6.61-2.36,11.21,11.21,0,0,1,6.6,2.36l33.5,31.61L263.75,352c3.78-3.31,9.44-3.31,12.74,0l24.07,22.65V151C302,67.47,234,0,151,0ZM89.65,198.17a42.47,42.47,0,1,1,42.46-42.47A42.29,42.29,0,0,1,89.65,198.17Zm122.67,0a42.47,42.47,0,1,1,42.47-42.47A42.28,42.28,0,0,1,212.32,198.17ZM113.24,155.7a23.59,23.59,0,1,1-23.59-23.59A23.36,23.36,0,0,1,113.24,155.7Zm122.68,0a23.6,23.6,0,1,1-23.6-23.59A23.37,23.37,0,0,1,235.92,155.7Z"/></g></g></svg>