<svg xmlns="http://www.w3.org/2000/svg" viewBox="0 0 388 388"><defs><style>.cls-1{fill:#ccc;}</style></defs><title>english-as-second-gc</title><g id="Layer_2" data-name="Layer 2"><g id="Layer_1-2" data-name="Layer 1"><path class="cls-1" d="M340.58,0H47.42C21.12,0,0,19.83,0,44.4V267.29c0,24.57,21.12,44.4,47.42,44.4h31v66a10.78,10.78,0,0,0,6.47,9.49,9.3,9.3,0,0,0,4.74.86A14.48,14.48,0,0,0,97,385.84l97.86-74.15H340.58c26.3,0,47.42-19.83,47.42-44.4V44.4C388,19.83,366.88,0,340.58,0ZM181.5,217.71H86.22V91.83h92.26v22.41H112.09V141h61.22v22H112.09v32.33h69.84v22.42Zm122.43,0H277.64l-51.31-89.24v89.24H201.76V91.83h27.59l50,87.94V91.83h24.57Z"/></g></g></svg>