<svg xmlns="http://www.w3.org/2000/svg" viewBox="0 0 317.33 408"><defs><style>.cls-1{fill:#333;}</style></defs><title>files-g3</title><g id="Layer_2" data-name="Layer 2"><g id="Layer_1-2" data-name="Layer 1"><g id="Layer_2-2" data-name="Layer 2"><g id="Layer_1-2-2" data-name="Layer 1-2"><path class="cls-1" d="M74.08,0H245.46a11.08,11.08,0,0,1,11.06,11.06V57.5h49.76c5.52,0,11.05,5.52,11.05,11V396.94c0,5.53-5.53,11.06-11.05,11.06H71.87c-5.53,0-11.06-5.53-11.06-11.06V349.4H11.06C4.42,349.4,0,345,0,338.34V74.08c0-3.32,1.11-6.63,3.32-7.74l63-63C67.45,1.11,70.76,0,74.08,0ZM256.52,79.61V338.34a11.08,11.08,0,0,1-11.06,11.06H82.93v36.49H295.22V79.61ZM85.14,22.11V82.93c0,5.53-5.53,11-11.06,11h-52v233.3h212.3V22.11ZM28.75,71.87H63V37.59Z"/><path class="cls-1" d="M66.34,138.21c-14.37,0-14.37-22.11,0-22.11h78.51c14.37,0,14.37,22.11,0,22.11Z"/><path class="cls-1" d="M66.34,184.65c-14.37,0-14.37-22.11,0-22.11H190.18c14.37,0,14.37,22.11,0,22.11Z"/><path class="cls-1" d="M66.34,231.09C52,231.09,52,209,66.34,209H190.18c14.37,0,14.37,22.11,0,22.11Z"/><path class="cls-1" d="M66.34,278.63c-14.37,0-14.37-22.11,0-22.11H190.18c14.37,0,14.37,22.11,0,22.11Z"/></g></g></g></g></svg>