<svg id="Layer_1" data-name="Layer 1" xmlns="http://www.w3.org/2000/svg" viewBox="0 0 2000 2000"><defs><style>.cls-1{fill:#333;stroke:#fff;stroke-width:2.43px;}</style></defs><title>H5P_Logo</title><path class="cls-1" d="M489.74,847.44V638.91H619V818.25H758.75V638.91H863.1L862,643.6c-2.18,9.12-40.34,178.08-45,199.15-2.59,11.76-4.2,21.88-3.58,22.5s26.15,4.58,56.74,8.8l55.62,7.67,8.48-9.93c23.94-28,64.64-28.49,88.14-1,30.8,36,4.05,92.17-43.78,92-17-.08-30.56-6.32-43.32-19.91l-10.1-10.76-55.55,7.87c-30.54,4.33-56,8.34-56.58,8.91-2.17,2.18,9,29.59,18,44.1,16.49,26.64,36.37,43.58,65.45,55.76,7.4,3.1,13.84,6,14.32,6.46s-33.54.82-75.6.82H758.75V901.65H619V1056H489.74Zm572.49,206.73c1.09-1,6.77-3.38,12.63-5.28,49.9-16.18,88.34-78,88.39-142.08,0-37-11.14-65.8-35.44-91.39-16.51-17.37-34-28.43-57.34-36.15-15.31-5.07-19.61-5.54-52.14-5.68-33.25-.14-36.58.21-53.72,5.65-10,3.2-19.67,6.35-21.39,7-2,.78-2.81.2-2.22-1.63.51-1.57,3.89-15.75,7.51-31.52l6.58-28.67h189.4v-86l97.49,1c90.89,1,98.63,1.34,114.18,5.47,43.24,11.49,68.7,34.63,81.74,74.28,4.81,14.65,5.51,20.26,5.66,45.88.13,21.8-.76,32.63-3.5,42.75-11.94,44.06-43.71,74.95-89.12,86.63-16.7,4.29-56.21,7-103.75,7.12l-36,.09V1056h-75.49c-43.39,0-74.65-.78-73.51-1.83Zm224.24-241.36c14.54-4.32,27.58-16.9,31.11-30,6.63-24.61-7.09-49.5-31-56.3-4.15-1.18-22.79-2.75-41.43-3.48l-33.89-1.33v97.22l32-1.37c19.33-.84,36.45-2.71,43.26-4.73Z"/></svg>