<svg xmlns="http://www.w3.org/2000/svg" viewBox="0 0 480.01 419.48"><defs><style>.cls-1{fill:#fff;}</style></defs><title>image-w</title><g id="Layer_2" data-name="Layer 2"><g id="Layer_1-2" data-name="Layer 1"><path class="cls-1" d="M3.24,118.75C0,125.67-1,133.12,1.11,140.57L41.55,276.26V98l-21.82,6.38A31,31,0,0,0,3.24,118.75Z"/><path class="cls-1" d="M78.26,398.64a28.7,28.7,0,0,0,29.8,20.75,22.76,22.76,0,0,0,5.86-1.06l119.72-35.65H73.47Z"/><path class="cls-1" d="M451.81,35.74H406l-4.25-14.9A28.71,28.71,0,0,0,372,.09a22.61,22.61,0,0,0-5.85,1.06l-116,34.59H90.5C75.07,35.74,62.3,49,62.3,65V334.79c0,16,12.77,29.26,28.2,29.26H451.81c15.43,0,28.2-13.3,28.2-29.26V65C480,49,467.24,35.74,451.81,35.74ZM90.5,57H451.81c3.72,0,6.91,3.72,6.91,8V266.15l-109.61-132a18.05,18.05,0,0,0-28.2,0L235.77,239.54a18,18,0,0,1-28.2,0l-37.25-45.23a18,18,0,0,0-28.2,0L83.58,264.55V65C83.58,60.75,86.78,57,90.5,57Z"/><circle class="cls-1" cx="223" cy="120.35" r="37.25"/></g></g></svg>