<svg xmlns="http://www.w3.org/2000/svg" viewBox="0 0 480.01 419.47"><defs><style>.cls-1{fill:#999;}</style></defs><title>image-g</title><g id="Layer_2" data-name="Layer 2"><g id="Layer_1-2" data-name="Layer 1"><g id="Layer_2-2" data-name="Layer 2"><g id="Layer_1-2-2" data-name="Layer 1-2"><path class="cls-1" d="M3.24,118.74a30.81,30.81,0,0,0-2.13,21.82L41.55,276.25V98l-21.82,6.38A31,31,0,0,0,3.24,118.74Z"/><path class="cls-1" d="M78.26,398.63a28.7,28.7,0,0,0,29.8,20.75,22.5,22.5,0,0,0,5.86-1.06l119.72-35.65H73.47Z"/><path class="cls-1" d="M451.81,35.73H406l-4.25-14.9A28.71,28.71,0,0,0,372,.08a22.85,22.85,0,0,0-5.85,1.06l-116,34.59H90.5C75.07,35.73,62.3,49,62.3,65V334.78c0,16,12.77,29.26,28.2,29.26H451.81c15.43,0,28.2-13.3,28.2-29.26V65C480,49,467.24,35.73,451.81,35.73ZM90.5,57H451.81c3.72,0,6.91,3.72,6.91,8V266.14l-109.61-132a18.05,18.05,0,0,0-25.37-2.83,18.93,18.93,0,0,0-2.83,2.83L235.77,239.53a18,18,0,0,1-25.29,2.91,17.8,17.8,0,0,1-2.91-2.91L170.32,194.3A18,18,0,0,0,145,191.39a18.2,18.2,0,0,0-2.91,2.91L83.58,264.54V65C83.58,60.74,86.78,57,90.5,57Z"/><circle class="cls-1" cx="223" cy="120.34" r="37.25"/></g></g></g></g></svg>