<svg xmlns="http://www.w3.org/2000/svg" viewBox="0 0 418.67 392.5"><defs><style>.cls-1{fill:#ccc;}</style></defs><title>informatics-gc</title><g id="Layer_2" data-name="Layer 2"><g id="Layer_1-2" data-name="Layer 1"><path class="cls-1" d="M179,118.8H133.45a71.92,71.92,0,0,0,7.85,31.92c6.28-2.62,20.41-7.33,38.73-10.47C179.5,132.93,179,125.6,179,118.8ZM142.35,81.64A86.73,86.73,0,0,0,134,107.28h45A156.36,156.36,0,0,1,180,91.58,182.23,182.23,0,0,1,142.35,81.64Zm38.72,69.6a211.87,211.87,0,0,0-34,8.9,74.89,74.89,0,0,0,45.53,30.35C186.83,181.07,183.17,166.94,181.07,151.24Zm-32.44-79a184.91,184.91,0,0,0,33,8.9c2.09-15.18,5.75-28.26,11-37.16A70,70,0,0,0,148.63,72.22Zm60.18-30.35c-4.71,0-12.56,14.13-16.22,40.82a166.09,166.09,0,0,0,32.44.52C221.37,56,213.52,41.87,208.81,41.87Zm-16.75,107.8c3.67,28.26,12,42.92,16.75,42.92s13.08-15.18,16.75-43.44A177.18,177.18,0,0,0,192.06,149.67ZM226.6,94.2a142.9,142.9,0,0,1-14.65.52c-7.33,0-14.13-.52-20.93-1-.53,4.18-.53,8.89-1.05,14.13h37.16C227.13,102.57,226.6,98.39,226.6,94.2ZM190,118.8c0,6.8.52,13.6,1.05,19.88a200,200,0,0,1,35.58-.52c.53-5.76.53-12.56.53-19.36ZM225,43.44c5.24,9.42,8.9,23,11,38.2a130.33,130.33,0,0,0,33-9.42A75.21,75.21,0,0,0,225,43.44ZM236.55,150.2c-2.1,16.22-5.76,30.87-11.52,40.29a73.51,73.51,0,0,0,45.53-30.87A144.21,144.21,0,0,0,236.55,150.2Zm38.72-68.56c-12.56,5.76-25.64,8.9-37.68,11,.53,4.71.53,9.94,1,14.65h45A74,74,0,0,0,275.27,81.64ZM238.64,118.8c0,6.8-.52,13.6-1,20.41a162,162,0,0,1,38.73,11.51,79.66,79.66,0,0,0,7.85-31.92Zm0,0c0,6.8-.52,13.6-1,20.41a162,162,0,0,1,38.73,11.51,79.66,79.66,0,0,0,7.85-31.92Zm-.52-11.52h45a70.29,70.29,0,0,0-8.37-25.64c-12.56,5.76-25.64,8.9-37.68,11C238.12,97.34,238.12,102.57,238.12,107.28ZM225,190.49a73.51,73.51,0,0,0,45.53-30.87c-11.51-5.24-23-7.85-34-10C234.45,166.42,230.27,181.07,225,190.49ZM269.52,72.22a76.92,76.92,0,0,0-44-28.78c5.23,9.42,8.89,23,11,38.2A143.94,143.94,0,0,0,269.52,72.22ZM191,138.16a199,199,0,0,1,35.58-.52c.53-5.76.53-12.56.53-19.37H190C190,125.6,190.49,132.4,191,138.16ZM212,94.72c-7.33,0-14.13-.52-20.93-1-.53,4.18-.53,8.89-1.05,14.13h37.16a111.25,111.25,0,0,0-1-13.61C221.37,94.2,216.66,94.72,212,94.72Zm-19.89,54.95c3.67,28.26,12,42.92,16.75,42.92s13.08-15.18,16.75-43.44A177.18,177.18,0,0,0,192.06,149.67Zm33-67C221.37,56,213.52,41.34,208.81,41.34s-12.56,14.13-16.22,40.82A166.06,166.06,0,0,0,225,82.69ZM192.59,43.44c-17.8,4.18-33.5,14.13-44,28.78a184.91,184.91,0,0,0,33,8.9C183.69,65.94,187.35,52.33,192.59,43.44Zm-45.53,116.7a74.89,74.89,0,0,0,45.53,30.35c-5.24-9.42-8.9-23.55-11-39.77A255.13,255.13,0,0,0,147.06,160.14Zm33-68a209.24,209.24,0,0,1-38.21-10.47,87,87,0,0,0-8.37,25.64h45C179.5,102.05,179.5,96.82,180,92.11ZM179,118.8H133.45a71.92,71.92,0,0,0,7.85,31.92c6.28-2.62,20.41-7.33,38.73-10.47C179.5,132.93,179,125.6,179,118.8ZM69.08,20.93V209.86H347.49V20.93ZM208.81,203.58A86.07,86.07,0,0,1,135,72.74v-.52c0-.52.52-.52.52-1a86.17,86.17,0,0,1,146.54,0,.51.51,0,0,0,.52.53v.52a86.25,86.25,0,0,1,12.56,44.48C295.16,164.85,256.43,203.58,208.81,203.58Zm28.78-64.37a162,162,0,0,1,38.73,11.51,79.66,79.66,0,0,0,7.85-31.92H238.64C238.64,125.6,238.12,132.4,237.59,139.21Zm0-46.58c.53,4.71.53,9.94,1,14.65h45a70.49,70.49,0,0,0-8.38-25.64A133.05,133.05,0,0,1,237.59,92.63ZM225,190.49a73.51,73.51,0,0,0,45.53-30.87c-11.51-5.24-23-7.85-34-10C234.45,166.42,230.27,181.07,225,190.49ZM269.52,72.22a76.92,76.92,0,0,0-44-28.78c5.23,9.42,8.89,23,11,38.2A143.94,143.94,0,0,0,269.52,72.22ZM191,138.16a199,199,0,0,1,35.58-.52c.53-5.76.53-12.56.53-19.37H190C190,125.6,190.49,132.4,191,138.16ZM212,94.72c-7.33,0-14.13-.52-20.93-1-.53,4.18-.53,8.89-1.05,14.13h37.16a111.25,111.25,0,0,0-1-13.61C221.37,94.2,216.66,94.72,212,94.72Zm-19.89,54.95c3.67,28.26,12,42.92,16.75,42.92s13.08-15.18,16.75-43.44A177.18,177.18,0,0,0,192.06,149.67Zm33-67C221.37,56,213.52,41.34,208.81,41.34s-12.56,14.13-16.22,40.82A166.06,166.06,0,0,0,225,82.69ZM192.59,43.44c-17.8,4.18-33.5,14.13-44,28.78a184.91,184.91,0,0,0,33,8.9C183.69,65.94,187.35,52.33,192.59,43.44Zm-45.53,116.7a74.89,74.89,0,0,0,45.53,30.35c-5.24-9.42-8.9-23.55-11-39.77A255.13,255.13,0,0,0,147.06,160.14Zm33-68a209.24,209.24,0,0,1-38.21-10.47,87,87,0,0,0-8.37,25.64h45C179.5,102.05,179.5,96.82,180,92.11ZM179,118.8H133.45a71.92,71.92,0,0,0,7.85,31.92c6.28-2.62,20.41-7.33,38.73-10.47C179.5,132.93,179,125.6,179,118.8Zm0,0H133.45a71.92,71.92,0,0,0,7.85,31.92c6.28-2.62,20.41-7.33,38.73-10.47C179.5,132.93,179,125.6,179,118.8ZM142.35,81.64A86.73,86.73,0,0,0,134,107.28h45A156.36,156.36,0,0,1,180,91.58,182.23,182.23,0,0,1,142.35,81.64Zm38.72,69.6a211.87,211.87,0,0,0-34,8.9,74.89,74.89,0,0,0,45.53,30.35C186.83,181.07,183.17,166.94,181.07,151.24Zm-32.44-79a184.91,184.91,0,0,0,33,8.9c2.09-15.18,5.75-28.26,11-37.16A70,70,0,0,0,148.63,72.22Zm60.18-30.35c-4.71,0-12.56,14.13-16.22,40.82a166.09,166.09,0,0,0,32.44.52C221.37,56,213.52,41.87,208.81,41.87Zm-16.75,107.8c3.67,28.26,12,42.92,16.75,42.92s13.08-15.18,16.75-43.44A177.18,177.18,0,0,0,192.06,149.67ZM226.6,94.2a142.9,142.9,0,0,1-14.65.52c-7.33,0-14.13-.52-20.93-1-.53,4.18-.53,8.89-1.05,14.13h37.16C227.13,102.57,226.6,98.39,226.6,94.2ZM190,118.8c0,6.8.52,13.6,1.05,19.88a200,200,0,0,1,35.58-.52c.53-5.76.53-12.56.53-19.36ZM225,43.44c5.24,9.42,8.9,23,11,38.2a130.33,130.33,0,0,0,33-9.42A75.21,75.21,0,0,0,225,43.44ZM236.55,150.2c-2.1,16.22-5.76,30.87-11.52,40.29a73.51,73.51,0,0,0,45.53-30.87A144.21,144.21,0,0,0,236.55,150.2Zm38.72-68.56c-12.56,5.76-25.64,8.9-37.68,11,.53,4.71.53,9.94,1,14.65h45A74,74,0,0,0,275.27,81.64ZM238.64,118.8c0,6.8-.52,13.6-1,20.41a162,162,0,0,1,38.73,11.51,79.66,79.66,0,0,0,7.85-31.92Zm0,0c0,6.8-.52,13.6-1,20.41a162,162,0,0,1,38.73,11.51,79.66,79.66,0,0,0,7.85-31.92Zm36.63-37.16c-12.56,5.76-25.64,8.9-37.68,11,.53,4.71.53,9.94,1,14.65h45A74,74,0,0,0,275.27,81.64ZM236.55,150.2c-2.1,16.22-5.76,30.87-11.52,40.29a73.51,73.51,0,0,0,45.53-30.87A144.21,144.21,0,0,0,236.55,150.2ZM225,43.44c5.24,9.42,8.9,23,11,38.2a130.33,130.33,0,0,0,33-9.42A75.21,75.21,0,0,0,225,43.44ZM190,118.8c0,6.8.52,13.6,1.05,19.88a200,200,0,0,1,35.58-.52c.53-5.76.53-12.56.53-19.36ZM226.6,94.2a142.9,142.9,0,0,1-14.65.52c-7.33,0-14.13-.52-20.93-1-.53,4.18-.53,8.89-1.05,14.13h37.16C227.13,102.57,226.6,98.39,226.6,94.2Zm-34.54,55.47c3.67,28.26,12,42.92,16.75,42.92s13.08-15.18,16.75-43.44A177.18,177.18,0,0,0,192.06,149.67Zm16.75-107.8c-4.71,0-12.56,14.13-16.22,40.82a166.09,166.09,0,0,0,32.44.52C221.37,56,213.52,41.87,208.81,41.87ZM148.63,72.22a184.91,184.91,0,0,0,33,8.9c2.09-15.18,5.75-28.26,11-37.16A70,70,0,0,0,148.63,72.22Zm32.44,79a211.87,211.87,0,0,0-34,8.9,74.89,74.89,0,0,0,45.53,30.35C186.83,181.07,183.17,166.94,181.07,151.24Zm-38.72-69.6A86.73,86.73,0,0,0,134,107.28h45A156.36,156.36,0,0,1,180,91.58,182.23,182.23,0,0,1,142.35,81.64ZM179,118.8H133.45a71.92,71.92,0,0,0,7.85,31.92c6.28-2.62,20.41-7.33,38.73-10.47C179.5,132.93,179,125.6,179,118.8Zm0,0H133.45a71.92,71.92,0,0,0,7.85,31.92c6.28-2.62,20.41-7.33,38.73-10.47C179.5,132.93,179,125.6,179,118.8ZM142.35,81.64A86.73,86.73,0,0,0,134,107.28h45A156.36,156.36,0,0,1,180,91.58,182.23,182.23,0,0,1,142.35,81.64Zm38.72,69.6a211.87,211.87,0,0,0-34,8.9,74.89,74.89,0,0,0,45.53,30.35C186.83,181.07,183.17,166.94,181.07,151.24Zm-32.44-79a184.91,184.91,0,0,0,33,8.9c2.09-15.18,5.75-28.26,11-37.16A70,70,0,0,0,148.63,72.22Zm60.18-30.35c-4.71,0-12.56,14.13-16.22,40.82a166.09,166.09,0,0,0,32.44.52C221.37,56,213.52,41.87,208.81,41.87Zm-16.75,107.8c3.67,28.26,12,42.92,16.75,42.92s13.08-15.18,16.75-43.44A177.18,177.18,0,0,0,192.06,149.67ZM226.6,94.2a142.9,142.9,0,0,1-14.65.52c-7.33,0-14.13-.52-20.93-1-.53,4.18-.53,8.89-1.05,14.13h37.16C227.13,102.57,226.6,98.39,226.6,94.2ZM190,118.8c0,6.8.52,13.6,1.05,19.88a200,200,0,0,1,35.58-.52c.53-5.76.53-12.56.53-19.36ZM225,43.44c5.24,9.42,8.9,23,11,38.2a130.33,130.33,0,0,0,33-9.42A75.21,75.21,0,0,0,225,43.44ZM236.55,150.2c-2.1,16.22-5.76,30.87-11.52,40.29a73.51,73.51,0,0,0,45.53-30.87A144.21,144.21,0,0,0,236.55,150.2Zm38.72-68.56c-12.56,5.76-25.64,8.9-37.68,11,.53,4.71.53,9.94,1,14.65h45A74,74,0,0,0,275.27,81.64ZM238.64,118.8c0,6.8-.52,13.6-1,20.41a162,162,0,0,1,38.73,11.51,79.66,79.66,0,0,0,7.85-31.92Zm0,0c0,6.8-.52,13.6-1,20.41a162,162,0,0,1,38.73,11.51,79.66,79.66,0,0,0,7.85-31.92Zm-.52-11.52h45a70.29,70.29,0,0,0-8.37-25.64c-12.56,5.76-25.64,8.9-37.68,11C238.12,97.34,238.12,102.57,238.12,107.28ZM225,190.49a73.51,73.51,0,0,0,45.53-30.87c-11.51-5.24-23-7.85-34-10C234.45,166.42,230.27,181.07,225,190.49ZM269.52,72.22a76.92,76.92,0,0,0-44-28.78c5.23,9.42,8.89,23,11,38.2A143.94,143.94,0,0,0,269.52,72.22ZM191,138.16a199,199,0,0,1,35.58-.52c.53-5.76.53-12.56.53-19.37H190C190,125.6,190.49,132.4,191,138.16ZM212,94.72c-7.33,0-14.13-.52-20.93-1-.53,4.18-.53,8.89-1.05,14.13h37.16a111.25,111.25,0,0,0-1-13.61C221.37,94.2,216.66,94.72,212,94.72Zm-19.89,54.95c3.67,28.26,12,42.92,16.75,42.92s13.08-15.18,16.75-43.44A177.18,177.18,0,0,0,192.06,149.67Zm33-67C221.37,56,213.52,41.34,208.81,41.34s-12.56,14.13-16.22,40.82A166.06,166.06,0,0,0,225,82.69ZM192.59,43.44c-17.8,4.18-33.5,14.13-44,28.78a184.91,184.91,0,0,0,33,8.9C183.69,65.94,187.35,52.33,192.59,43.44Zm-45.53,116.7a74.89,74.89,0,0,0,45.53,30.35c-5.24-9.42-8.9-23.55-11-39.77A255.13,255.13,0,0,0,147.06,160.14Zm33-68a209.24,209.24,0,0,1-38.21-10.47,87,87,0,0,0-8.37,25.64h45C179.5,102.05,179.5,96.82,180,92.11ZM179,118.8H133.45a71.92,71.92,0,0,0,7.85,31.92c6.28-2.62,20.41-7.33,38.73-10.47C179.5,132.93,179,125.6,179,118.8ZM69.08,20.93V209.86H347.49V20.93ZM208.81,203.58A86.07,86.07,0,0,1,135,72.74v-.52c0-.52.52-.52.52-1a86.17,86.17,0,0,1,146.54,0,.51.51,0,0,0,.52.53v.52a86.25,86.25,0,0,1,12.56,44.48C295.16,164.85,256.43,203.58,208.81,203.58Zm28.78-64.37a162,162,0,0,1,38.73,11.51,79.66,79.66,0,0,0,7.85-31.92H238.64C238.64,125.6,238.12,132.4,237.59,139.21Zm0-46.58c.53,4.71.53,9.94,1,14.65h45a70.49,70.49,0,0,0-8.38-25.64A133.05,133.05,0,0,1,237.59,92.63ZM225,190.49a73.51,73.51,0,0,0,45.53-30.87c-11.51-5.24-23-7.85-34-10C234.45,166.42,230.27,181.07,225,190.49ZM269.52,72.22a76.92,76.92,0,0,0-44-28.78c5.23,9.42,8.89,23,11,38.2A143.94,143.94,0,0,0,269.52,72.22ZM191,138.16a199,199,0,0,1,35.58-.52c.53-5.76.53-12.56.53-19.37H190C190,125.6,190.49,132.4,191,138.16ZM212,94.72c-7.33,0-14.13-.52-20.93-1-.53,4.18-.53,8.89-1.05,14.13h37.16a111.25,111.25,0,0,0-1-13.61C221.37,94.2,216.66,94.72,212,94.72Zm-19.89,54.95c3.67,28.26,12,42.92,16.75,42.92s13.08-15.18,16.75-43.44A177.18,177.18,0,0,0,192.06,149.67Zm33-67C221.37,56,213.52,41.34,208.81,41.34s-12.56,14.13-16.22,40.82A166.06,166.06,0,0,0,225,82.69ZM192.59,43.44c-17.8,4.18-33.5,14.13-44,28.78a184.91,184.91,0,0,0,33,8.9C183.69,65.94,187.35,52.33,192.59,43.44Zm-45.53,116.7a74.89,74.89,0,0,0,45.53,30.35c-5.24-9.42-8.9-23.55-11-39.77A255.13,255.13,0,0,0,147.06,160.14Zm33-68a209.24,209.24,0,0,1-38.21-10.47,87,87,0,0,0-8.37,25.64h45C179.5,102.05,179.5,96.82,180,92.11ZM179,118.8H133.45a71.92,71.92,0,0,0,7.85,31.92c6.28-2.62,20.41-7.33,38.73-10.47C179.5,132.93,179,125.6,179,118.8Zm0,0H133.45a71.92,71.92,0,0,0,7.85,31.92c6.28-2.62,20.41-7.33,38.73-10.47C179.5,132.93,179,125.6,179,118.8ZM142.35,81.64A86.73,86.73,0,0,0,134,107.28h45A156.36,156.36,0,0,1,180,91.58,182.23,182.23,0,0,1,142.35,81.64Zm38.72,69.6a211.87,211.87,0,0,0-34,8.9,74.89,74.89,0,0,0,45.53,30.35C186.83,181.07,183.17,166.94,181.07,151.24Zm-32.44-79a184.91,184.91,0,0,0,33,8.9c2.09-15.18,5.75-28.26,11-37.16A70,70,0,0,0,148.63,72.22Zm60.18-30.35c-4.71,0-12.56,14.13-16.22,40.82a166.09,166.09,0,0,0,32.44.52C221.37,56,213.52,41.87,208.81,41.87Zm-16.75,107.8c3.67,28.26,12,42.92,16.75,42.92s13.08-15.18,16.75-43.44A177.18,177.18,0,0,0,192.06,149.67ZM226.6,94.2a142.9,142.9,0,0,1-14.65.52c-7.33,0-14.13-.52-20.93-1-.53,4.18-.53,8.89-1.05,14.13h37.16C227.13,102.57,226.6,98.39,226.6,94.2ZM190,118.8c0,6.8.52,13.6,1.05,19.88a200,200,0,0,1,35.58-.52c.53-5.76.53-12.56.53-19.36ZM225,43.44c5.24,9.42,8.9,23,11,38.2a130.33,130.33,0,0,0,33-9.42A75.21,75.21,0,0,0,225,43.44ZM236.55,150.2c-2.1,16.22-5.76,30.87-11.52,40.29a73.51,73.51,0,0,0,45.53-30.87A144.21,144.21,0,0,0,236.55,150.2Zm38.72-68.56c-12.56,5.76-25.64,8.9-37.68,11,.53,4.71.53,9.94,1,14.65h45A74,74,0,0,0,275.27,81.64ZM238.64,118.8c0,6.8-.52,13.6-1,20.41a162,162,0,0,1,38.73,11.51,79.66,79.66,0,0,0,7.85-31.92Zm0,0c0,6.8-.52,13.6-1,20.41a162,162,0,0,1,38.73,11.51,79.66,79.66,0,0,0,7.85-31.92Zm36.63-37.16c-12.56,5.76-25.64,8.9-37.68,11,.53,4.71.53,9.94,1,14.65h45A74,74,0,0,0,275.27,81.64ZM236.55,150.2c-2.1,16.22-5.76,30.87-11.52,40.29a73.51,73.51,0,0,0,45.53-30.87A144.21,144.21,0,0,0,236.55,150.2ZM225,43.44c5.24,9.42,8.9,23,11,38.2a130.33,130.33,0,0,0,33-9.42A75.21,75.21,0,0,0,225,43.44ZM190,118.8c0,6.8.52,13.6,1.05,19.88a200,200,0,0,1,35.58-.52c.53-5.76.53-12.56.53-19.36ZM226.6,94.2a142.9,142.9,0,0,1-14.65.52c-7.33,0-14.13-.52-20.93-1-.53,4.18-.53,8.89-1.05,14.13h37.16C227.13,102.57,226.6,98.39,226.6,94.2Zm-34.54,55.47c3.67,28.26,12,42.92,16.75,42.92s13.08-15.18,16.75-43.44A177.18,177.18,0,0,0,192.06,149.67Zm16.75-107.8c-4.71,0-12.56,14.13-16.22,40.82a166.09,166.09,0,0,0,32.44.52C221.37,56,213.52,41.87,208.81,41.87ZM148.63,72.22a184.91,184.91,0,0,0,33,8.9c2.09-15.18,5.75-28.26,11-37.16A70,70,0,0,0,148.63,72.22Zm32.44,79a211.87,211.87,0,0,0-34,8.9,74.89,74.89,0,0,0,45.53,30.35C186.83,181.07,183.17,166.94,181.07,151.24Zm-38.72-69.6A86.73,86.73,0,0,0,134,107.28h45A156.36,156.36,0,0,1,180,91.58,182.23,182.23,0,0,1,142.35,81.64ZM179,118.8H133.45a71.92,71.92,0,0,0,7.85,31.92c6.28-2.62,20.41-7.33,38.73-10.47C179.5,132.93,179,125.6,179,118.8Zm0,0H133.45a71.92,71.92,0,0,0,7.85,31.92c6.28-2.62,20.41-7.33,38.73-10.47C179.5,132.93,179,125.6,179,118.8ZM142.35,81.64A86.73,86.73,0,0,0,134,107.28h45A156.36,156.36,0,0,1,180,91.58,182.23,182.23,0,0,1,142.35,81.64Zm38.72,69.6a211.87,211.87,0,0,0-34,8.9,74.89,74.89,0,0,0,45.53,30.35C186.83,181.07,183.17,166.94,181.07,151.24Zm-32.44-79a184.91,184.91,0,0,0,33,8.9c2.09-15.18,5.75-28.26,11-37.16A70,70,0,0,0,148.63,72.22Zm60.18-30.35c-4.71,0-12.56,14.13-16.22,40.82a166.09,166.09,0,0,0,32.44.52C221.37,56,213.52,41.87,208.81,41.87Zm-16.75,107.8c3.67,28.26,12,42.92,16.75,42.92s13.08-15.18,16.75-43.44A177.18,177.18,0,0,0,192.06,149.67ZM226.6,94.2a142.9,142.9,0,0,1-14.65.52c-7.33,0-14.13-.52-20.93-1-.53,4.18-.53,8.89-1.05,14.13h37.16C227.13,102.57,226.6,98.39,226.6,94.2ZM190,118.8c0,6.8.52,13.6,1.05,19.88a200,200,0,0,1,35.58-.52c.53-5.76.53-12.56.53-19.36ZM225,43.44c5.24,9.42,8.9,23,11,38.2a130.33,130.33,0,0,0,33-9.42A75.21,75.21,0,0,0,225,43.44ZM236.55,150.2c-2.1,16.22-5.76,30.87-11.52,40.29a73.51,73.51,0,0,0,45.53-30.87A144.21,144.21,0,0,0,236.55,150.2Zm38.72-68.56c-12.56,5.76-25.64,8.9-37.68,11,.53,4.71.53,9.94,1,14.65h45A74,74,0,0,0,275.27,81.64ZM238.64,118.8c0,6.8-.52,13.6-1,20.41a162,162,0,0,1,38.73,11.51,79.66,79.66,0,0,0,7.85-31.92Zm0,0c0,6.8-.52,13.6-1,20.41a162,162,0,0,1,38.73,11.51,79.66,79.66,0,0,0,7.85-31.92Zm-.52-11.52h45a70.29,70.29,0,0,0-8.37-25.64c-12.56,5.76-25.64,8.9-37.68,11C238.12,97.34,238.12,102.57,238.12,107.28ZM225,190.49a73.51,73.51,0,0,0,45.53-30.87c-11.51-5.24-23-7.85-34-10C234.45,166.42,230.27,181.07,225,190.49ZM269.52,72.22a76.92,76.92,0,0,0-44-28.78c5.23,9.42,8.89,23,11,38.2A143.94,143.94,0,0,0,269.52,72.22ZM191,138.16a199,199,0,0,1,35.58-.52c.53-5.76.53-12.56.53-19.37H190C190,125.6,190.49,132.4,191,138.16ZM212,94.72c-7.33,0-14.13-.52-20.93-1-.53,4.18-.53,8.89-1.05,14.13h37.16a111.25,111.25,0,0,0-1-13.61C221.37,94.2,216.66,94.72,212,94.72Zm-19.89,54.95c3.67,28.26,12,42.92,16.75,42.92s13.08-15.18,16.75-43.44A177.18,177.18,0,0,0,192.06,149.67Zm33-67C221.37,56,213.52,41.34,208.81,41.34s-12.56,14.13-16.22,40.82A166.06,166.06,0,0,0,225,82.69ZM192.59,43.44c-17.8,4.18-33.5,14.13-44,28.78a184.91,184.91,0,0,0,33,8.9C183.69,65.94,187.35,52.33,192.59,43.44Zm-45.53,116.7a74.89,74.89,0,0,0,45.53,30.35c-5.24-9.42-8.9-23.55-11-39.77A255.13,255.13,0,0,0,147.06,160.14Zm33-68a209.24,209.24,0,0,1-38.21-10.47,87,87,0,0,0-8.37,25.64h45C179.5,102.05,179.5,96.82,180,92.11ZM179,118.8H133.45a71.92,71.92,0,0,0,7.85,31.92c6.28-2.62,20.41-7.33,38.73-10.47C179.5,132.93,179,125.6,179,118.8ZM69.08,20.93V209.86H347.49V20.93ZM208.81,203.58A86.07,86.07,0,0,1,135,72.74v-.52c0-.52.52-.52.52-1a86.17,86.17,0,0,1,146.54,0,.51.51,0,0,0,.52.53v.52a86.25,86.25,0,0,1,12.56,44.48C295.16,164.85,256.43,203.58,208.81,203.58Zm28.78-64.37a162,162,0,0,1,38.73,11.51,79.66,79.66,0,0,0,7.85-31.92H238.64C238.64,125.6,238.12,132.4,237.59,139.21Zm0-46.58c.53,4.71.53,9.94,1,14.65h45a70.49,70.49,0,0,0-8.38-25.64A133.05,133.05,0,0,1,237.59,92.63ZM225,190.49a73.51,73.51,0,0,0,45.53-30.87c-11.51-5.24-23-7.85-34-10C234.45,166.42,230.27,181.07,225,190.49ZM269.52,72.22a76.92,76.92,0,0,0-44-28.78c5.23,9.42,8.89,23,11,38.2A143.94,143.94,0,0,0,269.52,72.22ZM191,138.16a199,199,0,0,1,35.58-.52c.53-5.76.53-12.56.53-19.37H190C190,125.6,190.49,132.4,191,138.16ZM212,94.72c-7.33,0-14.13-.52-20.93-1-.53,4.18-.53,8.89-1.05,14.13h37.16a111.25,111.25,0,0,0-1-13.61C221.37,94.2,216.66,94.72,212,94.72Zm-19.89,54.95c3.67,28.26,12,42.92,16.75,42.92s13.08-15.18,16.75-43.44A177.18,177.18,0,0,0,192.06,149.67Zm33-67C221.37,56,213.52,41.34,208.81,41.34s-12.56,14.13-16.22,40.82A166.06,166.06,0,0,0,225,82.69ZM192.59,43.44c-17.8,4.18-33.5,14.13-44,28.78a184.91,184.91,0,0,0,33,8.9C183.69,65.94,187.35,52.33,192.59,43.44Zm-45.53,116.7a74.89,74.89,0,0,0,45.53,30.35c-5.24-9.42-8.9-23.55-11-39.77A255.13,255.13,0,0,0,147.06,160.14Zm33-68a209.24,209.24,0,0,1-38.21-10.47,87,87,0,0,0-8.37,25.64h45C179.5,102.05,179.5,96.82,180,92.11ZM179,118.8H133.45a71.92,71.92,0,0,0,7.85,31.92c6.28-2.62,20.41-7.33,38.73-10.47C179.5,132.93,179,125.6,179,118.8ZM69.08,20.93V209.86H347.49V20.93ZM208.81,203.58A86.07,86.07,0,0,1,135,72.74v-.52c0-.52.52-.52.52-1a86.17,86.17,0,0,1,146.54,0,.51.51,0,0,0,.52.53v.52a86.25,86.25,0,0,1,12.56,44.48C295.16,164.85,256.43,203.58,208.81,203.58Zm28.78-64.37a162,162,0,0,1,38.73,11.51,79.66,79.66,0,0,0,7.85-31.92H238.64C238.64,125.6,238.12,132.4,237.59,139.21Zm0-46.58c.53,4.71.53,9.94,1,14.65h45a70.49,70.49,0,0,0-8.38-25.64A133.05,133.05,0,0,1,237.59,92.63ZM225,190.49a73.51,73.51,0,0,0,45.53-30.87c-11.51-5.24-23-7.85-34-10C234.45,166.42,230.27,181.07,225,190.49ZM269.52,72.22a76.92,76.92,0,0,0-44-28.78c5.23,9.42,8.89,23,11,38.2A143.94,143.94,0,0,0,269.52,72.22ZM191,138.16a199,199,0,0,1,35.58-.52c.53-5.76.53-12.56.53-19.37H190C190,125.6,190.49,132.4,191,138.16ZM212,94.72c-7.33,0-14.13-.52-20.93-1-.53,4.18-.53,8.89-1.05,14.13h37.16a111.25,111.25,0,0,0-1-13.61C221.37,94.2,216.66,94.72,212,94.72Zm-19.89,54.95c3.67,28.26,12,42.92,16.75,42.92s13.08-15.18,16.75-43.44A177.18,177.18,0,0,0,192.06,149.67Zm33-67C221.37,56,213.52,41.34,208.81,41.34s-12.56,14.13-16.22,40.82A166.06,166.06,0,0,0,225,82.69ZM192.59,43.44c-17.8,4.18-33.5,14.13-44,28.78a184.91,184.91,0,0,0,33,8.9C183.69,65.94,187.35,52.33,192.59,43.44Zm-45.53,116.7a74.89,74.89,0,0,0,45.53,30.35c-5.24-9.42-8.9-23.55-11-39.77A255.13,255.13,0,0,0,147.06,160.14Zm33-68a209.24,209.24,0,0,1-38.21-10.47,87,87,0,0,0-8.37,25.64h45C179.5,102.05,179.5,96.82,180,92.11ZM179,118.8H133.45a71.92,71.92,0,0,0,7.85,31.92c6.28-2.62,20.41-7.33,38.73-10.47C179.5,132.93,179,125.6,179,118.8ZM359,0H57A11.61,11.61,0,0,0,45.53,11.51V230.79H370V11C370.52,4.71,365.29,0,359,0Zm-.53,215.09a5.8,5.8,0,0,1-5.75,5.76H63.32a5.8,5.8,0,0,1-5.75-5.76V15.18a5.8,5.8,0,0,1,5.75-5.76H353.25A5.81,5.81,0,0,1,359,15.18V215.09Zm-289.4-5.76H347.49V20.93H69.08ZM134.5,72.74h0a1.82,1.82,0,0,1,.52-1,86.16,86.16,0,0,1,146.53,0,.52.52,0,0,0,.53.52v.52a86.27,86.27,0,1,1-160.14,44.49A83.5,83.5,0,0,1,134.5,72.74Zm103.09,66.47a162,162,0,0,1,38.73,11.51,79.66,79.66,0,0,0,7.85-31.92H238.64C238.64,125.6,238.12,132.4,237.59,139.21Zm.53-31.93h45a70.29,70.29,0,0,0-8.37-25.64c-12.56,5.76-25.64,8.9-37.68,11C238.12,97.34,238.12,102.57,238.12,107.28ZM225,190.49a73.51,73.51,0,0,0,45.53-30.87c-11.51-5.24-23-7.85-34-10C234.45,166.42,230.27,181.07,225,190.49ZM269.52,72.22a76.92,76.92,0,0,0-44-28.78c5.23,9.42,8.89,23,11,38.2A143.94,143.94,0,0,0,269.52,72.22ZM191,138.16a199,199,0,0,1,35.58-.52c.53-5.76.53-12.56.53-19.37H190C190,125.6,190.49,132.4,191,138.16ZM212,94.72c-7.33,0-14.13-.52-20.93-1-.53,4.18-.53,8.89-1.05,14.13h37.16a111.25,111.25,0,0,0-1-13.61C221.37,94.2,216.66,94.72,212,94.72Zm-19.89,54.95c3.67,28.26,12,42.92,16.75,42.92s13.08-15.18,16.75-43.44A177.18,177.18,0,0,0,192.06,149.67Zm33-67C221.37,56,213.52,41.34,208.81,41.34s-12.56,14.13-16.22,40.82A166.06,166.06,0,0,0,225,82.69ZM192.59,43.44c-17.8,4.18-33.5,14.13-44,28.78a184.91,184.91,0,0,0,33,8.9C183.69,65.94,187.35,52.33,192.59,43.44Zm0,147.05c-5.24-9.42-8.9-23.55-11-39.77a211,211,0,0,0-34,8.9C157.52,175.32,173.75,186.31,192.59,190.49ZM180,92.11a209.24,209.24,0,0,1-38.21-10.47,87,87,0,0,0-8.37,25.64h45C179.5,102.05,179.5,96.82,180,92.11ZM179,118.8H133.45a71.92,71.92,0,0,0,7.85,31.92c6.28-2.62,20.41-7.33,38.73-10.47C179.5,132.93,179,125.6,179,118.8Zm0,0H133.45a71.92,71.92,0,0,0,7.85,31.92c6.28-2.62,20.41-7.33,38.73-10.47C179.5,132.93,179,125.6,179,118.8ZM142.35,81.64A86.73,86.73,0,0,0,134,107.28h45A156.36,156.36,0,0,1,180,91.58,182.23,182.23,0,0,1,142.35,81.64Zm38.72,69.6a211.87,211.87,0,0,0-34,8.9,74.89,74.89,0,0,0,45.53,30.35C186.83,181.07,183.17,166.94,181.07,151.24Zm-32.44-79a184.91,184.91,0,0,0,33,8.9c2.09-15.18,5.75-28.26,11-37.16A70,70,0,0,0,148.63,72.22Zm60.18-30.35c-4.71,0-12.56,14.13-16.22,40.82a166.09,166.09,0,0,0,32.44.52C221.37,56,213.52,41.87,208.81,41.87Zm-16.75,107.8c3.67,28.26,12,42.92,16.75,42.92s13.08-15.18,16.75-43.44A177.18,177.18,0,0,0,192.06,149.67ZM226.6,94.2a142.9,142.9,0,0,1-14.65.52c-7.33,0-14.13-.52-20.93-1-.53,4.18-.53,8.89-1.05,14.13h37.16C227.13,102.57,226.6,98.39,226.6,94.2ZM190,118.8c0,6.8.52,13.6,1.05,19.88a200,200,0,0,1,35.58-.52c.53-5.76.53-12.56.53-19.36ZM225,43.44c5.24,9.42,8.9,23,11,38.2a130.33,130.33,0,0,0,33-9.42A75.21,75.21,0,0,0,225,43.44ZM236.55,150.2c-2.1,16.22-5.76,30.87-11.52,40.29a73.51,73.51,0,0,0,45.53-30.87A144.21,144.21,0,0,0,236.55,150.2Zm38.72-68.56c-12.56,5.76-25.64,8.9-37.68,11,.53,4.71.53,9.94,1,14.65h45A74,74,0,0,0,275.27,81.64ZM238.64,118.8c0,6.8-.52,13.6-1,20.41a162,162,0,0,1,38.73,11.51,79.66,79.66,0,0,0,7.85-31.92Zm0,0c0,6.8-.52,13.6-1,20.41a162,162,0,0,1,38.73,11.51,79.66,79.66,0,0,0,7.85-31.92Zm-.52-11.52h45a70.29,70.29,0,0,0-8.37-25.64c-12.56,5.76-25.64,8.9-37.68,11C238.12,97.34,238.12,102.57,238.12,107.28ZM225,190.49a73.51,73.51,0,0,0,45.53-30.87c-11.51-5.24-23-7.85-34-10C234.45,166.42,230.27,181.07,225,190.49ZM269.52,72.22a76.92,76.92,0,0,0-44-28.78c5.23,9.42,8.89,23,11,38.2A143.94,143.94,0,0,0,269.52,72.22ZM191,138.16a199,199,0,0,1,35.58-.52c.53-5.76.53-12.56.53-19.37H190C190,125.6,190.49,132.4,191,138.16ZM212,94.72c-7.33,0-14.13-.52-20.93-1-.53,4.18-.53,8.89-1.05,14.13h37.16a111.25,111.25,0,0,0-1-13.61C221.37,94.2,216.66,94.72,212,94.72Zm-19.89,54.95c3.67,28.26,12,42.92,16.75,42.92s13.08-15.18,16.75-43.44A177.18,177.18,0,0,0,192.06,149.67Zm33-67C221.37,56,213.52,41.34,208.81,41.34s-12.56,14.13-16.22,40.82A166.06,166.06,0,0,0,225,82.69ZM192.59,43.44c-17.8,4.18-33.5,14.13-44,28.78a184.91,184.91,0,0,0,33,8.9C183.69,65.94,187.35,52.33,192.59,43.44Zm-45.53,116.7a74.89,74.89,0,0,0,45.53,30.35c-5.24-9.42-8.9-23.55-11-39.77A255.13,255.13,0,0,0,147.06,160.14Zm33-68a209.24,209.24,0,0,1-38.21-10.47,87,87,0,0,0-8.37,25.64h45C179.5,102.05,179.5,96.82,180,92.11ZM179,118.8H133.45a71.92,71.92,0,0,0,7.85,31.92c6.28-2.62,20.41-7.33,38.73-10.47C179.5,132.93,179,125.6,179,118.8ZM69.08,20.93V209.86H347.49V20.93ZM208.81,203.58A86.07,86.07,0,0,1,135,72.74v-.52c0-.52.52-.52.52-1a86.17,86.17,0,0,1,146.54,0,.51.51,0,0,0,.52.53v.52a86.25,86.25,0,0,1,12.56,44.48C295.16,164.85,256.43,203.58,208.81,203.58Zm28.78-64.37a162,162,0,0,1,38.73,11.51,79.66,79.66,0,0,0,7.85-31.92H238.64C238.64,125.6,238.12,132.4,237.59,139.21Zm0-46.58c.53,4.71.53,9.94,1,14.65h45a70.49,70.49,0,0,0-8.38-25.64A133.05,133.05,0,0,1,237.59,92.63ZM225,190.49a73.51,73.51,0,0,0,45.53-30.87c-11.51-5.24-23-7.85-34-10C234.45,166.42,230.27,181.07,225,190.49ZM269.52,72.22a76.92,76.92,0,0,0-44-28.78c5.23,9.42,8.89,23,11,38.2A143.94,143.94,0,0,0,269.52,72.22ZM191,138.16a199,199,0,0,1,35.58-.52c.53-5.76.53-12.56.53-19.37H190C190,125.6,190.49,132.4,191,138.16ZM212,94.72c-7.33,0-14.13-.52-20.93-1-.53,4.18-.53,8.89-1.05,14.13h37.16a111.25,111.25,0,0,0-1-13.61C221.37,94.2,216.66,94.72,212,94.72Zm-19.89,54.95c3.67,28.26,12,42.92,16.75,42.92s13.08-15.18,16.75-43.44A177.18,177.18,0,0,0,192.06,149.67Zm33-67C221.37,56,213.52,41.34,208.81,41.34s-12.56,14.13-16.22,40.82A166.06,166.06,0,0,0,225,82.69ZM192.59,43.44c-17.8,4.18-33.5,14.13-44,28.78a184.91,184.91,0,0,0,33,8.9C183.69,65.94,187.35,52.33,192.59,43.44Zm-45.53,116.7a74.89,74.89,0,0,0,45.53,30.35c-5.24-9.42-8.9-23.55-11-39.77A255.13,255.13,0,0,0,147.06,160.14Zm33-68a209.24,209.24,0,0,1-38.21-10.47,87,87,0,0,0-8.37,25.64h45C179.5,102.05,179.5,96.82,180,92.11ZM179,118.8H133.45a71.92,71.92,0,0,0,7.85,31.92c6.28-2.62,20.41-7.33,38.73-10.47C179.5,132.93,179,125.6,179,118.8Zm0,0H133.45a71.92,71.92,0,0,0,7.85,31.92c6.28-2.62,20.41-7.33,38.73-10.47C179.5,132.93,179,125.6,179,118.8ZM142.35,81.64A86.73,86.73,0,0,0,134,107.28h45A156.36,156.36,0,0,1,180,91.58,182.23,182.23,0,0,1,142.35,81.64Zm38.72,69.6a211.87,211.87,0,0,0-34,8.9,74.89,74.89,0,0,0,45.53,30.35C186.83,181.07,183.17,166.94,181.07,151.24Zm-32.44-79a184.91,184.91,0,0,0,33,8.9c2.09-15.18,5.75-28.26,11-37.16A70,70,0,0,0,148.63,72.22Zm60.18-30.35c-4.71,0-12.56,14.13-16.22,40.82a166.09,166.09,0,0,0,32.44.52C221.37,56,213.52,41.87,208.81,41.87Zm-16.75,107.8c3.67,28.26,12,42.92,16.75,42.92s13.08-15.18,16.75-43.44A177.18,177.18,0,0,0,192.06,149.67ZM226.6,94.2a142.9,142.9,0,0,1-14.65.52c-7.33,0-14.13-.52-20.93-1-.53,4.18-.53,8.89-1.05,14.13h37.16C227.13,102.57,226.6,98.39,226.6,94.2ZM190,118.8c0,6.8.52,13.6,1.05,19.88a200,200,0,0,1,35.58-.52c.53-5.76.53-12.56.53-19.36ZM225,43.44c5.24,9.42,8.9,23,11,38.2a130.33,130.33,0,0,0,33-9.42A75.21,75.21,0,0,0,225,43.44ZM236.55,150.2c-2.1,16.22-5.76,30.87-11.52,40.29a73.51,73.51,0,0,0,45.53-30.87A144.21,144.21,0,0,0,236.55,150.2Zm38.72-68.56c-12.56,5.76-25.64,8.9-37.68,11,.53,4.71.53,9.94,1,14.65h45A74,74,0,0,0,275.27,81.64ZM238.64,118.8c0,6.8-.52,13.6-1,20.41a162,162,0,0,1,38.73,11.51,79.66,79.66,0,0,0,7.85-31.92Zm0,0c0,6.8-.52,13.6-1,20.41a162,162,0,0,1,38.73,11.51,79.66,79.66,0,0,0,7.85-31.92Zm-.52-11.52h45a70.29,70.29,0,0,0-8.37-25.64c-12.56,5.76-25.64,8.9-37.68,11C238.12,97.34,238.12,102.57,238.12,107.28ZM225,190.49a73.51,73.51,0,0,0,45.53-30.87c-11.51-5.24-23-7.85-34-10C234.45,166.42,230.27,181.07,225,190.49ZM269.52,72.22a76.92,76.92,0,0,0-44-28.78c5.23,9.42,8.89,23,11,38.2A143.94,143.94,0,0,0,269.52,72.22ZM191,138.16a199,199,0,0,1,35.58-.52c.53-5.76.53-12.56.53-19.37H190C190,125.6,190.49,132.4,191,138.16ZM212,94.72c-7.33,0-14.13-.52-20.93-1-.53,4.18-.53,8.89-1.05,14.13h37.16a111.25,111.25,0,0,0-1-13.61C221.37,94.2,216.66,94.72,212,94.72Zm-19.89,54.95c3.67,28.26,12,42.92,16.75,42.92s13.08-15.18,16.75-43.44A177.18,177.18,0,0,0,192.06,149.67Zm33-67C221.37,56,213.52,41.34,208.81,41.34s-12.56,14.13-16.22,40.82A166.06,166.06,0,0,0,225,82.69ZM192.59,43.44c-17.8,4.18-33.5,14.13-44,28.78a184.91,184.91,0,0,0,33,8.9C183.69,65.94,187.35,52.33,192.59,43.44Zm-45.53,116.7a74.89,74.89,0,0,0,45.53,30.35c-5.24-9.42-8.9-23.55-11-39.77A255.13,255.13,0,0,0,147.06,160.14Zm33-68a209.24,209.24,0,0,1-38.21-10.47,87,87,0,0,0-8.37,25.64h45C179.5,102.05,179.5,96.82,180,92.11ZM179,118.8H133.45a71.92,71.92,0,0,0,7.85,31.92c6.28-2.62,20.41-7.33,38.73-10.47C179.5,132.93,179,125.6,179,118.8ZM69.08,20.93V209.86H347.49V20.93ZM208.81,203.58A86.07,86.07,0,0,1,135,72.74v-.52c0-.52.52-.52.52-1a86.17,86.17,0,0,1,146.54,0,.51.51,0,0,0,.52.53v.52a86.25,86.25,0,0,1,12.56,44.48C295.16,164.85,256.43,203.58,208.81,203.58Zm28.78-64.37a162,162,0,0,1,38.73,11.51,79.66,79.66,0,0,0,7.85-31.92H238.64C238.64,125.6,238.12,132.4,237.59,139.21Zm0-46.58c.53,4.71.53,9.94,1,14.65h45a70.49,70.49,0,0,0-8.38-25.64A133.05,133.05,0,0,1,237.59,92.63ZM225,190.49a73.51,73.51,0,0,0,45.53-30.87c-11.51-5.24-23-7.85-34-10C234.45,166.42,230.27,181.07,225,190.49ZM269.52,72.22a76.92,76.92,0,0,0-44-28.78c5.23,9.42,8.89,23,11,38.2A143.94,143.94,0,0,0,269.52,72.22ZM191,138.16a199,199,0,0,1,35.58-.52c.53-5.76.53-12.56.53-19.37H190C190,125.6,190.49,132.4,191,138.16ZM212,94.72c-7.33,0-14.13-.52-20.93-1-.53,4.18-.53,8.89-1.05,14.13h37.16a111.25,111.25,0,0,0-1-13.61C221.37,94.2,216.66,94.72,212,94.72Zm-19.89,54.95c3.67,28.26,12,42.92,16.75,42.92s13.08-15.18,16.75-43.44A177.18,177.18,0,0,0,192.06,149.67Zm33-67C221.37,56,213.52,41.34,208.81,41.34s-12.56,14.13-16.22,40.82A166.06,166.06,0,0,0,225,82.69ZM192.59,43.44c-17.8,4.18-33.5,14.13-44,28.78a184.91,184.91,0,0,0,33,8.9C183.69,65.94,187.35,52.33,192.59,43.44Zm-45.53,116.7a74.89,74.89,0,0,0,45.53,30.35c-5.24-9.42-8.9-23.55-11-39.77A255.13,255.13,0,0,0,147.06,160.14Zm33-68a209.24,209.24,0,0,1-38.21-10.47,87,87,0,0,0-8.37,25.64h45C179.5,102.05,179.5,96.82,180,92.11ZM179,118.8H133.45a71.92,71.92,0,0,0,7.85,31.92c6.28-2.62,20.41-7.33,38.73-10.47C179.5,132.93,179,125.6,179,118.8Zm0,0H133.45a71.92,71.92,0,0,0,7.85,31.92c6.28-2.62,20.41-7.33,38.73-10.47C179.5,132.93,179,125.6,179,118.8ZM142.35,81.64A86.73,86.73,0,0,0,134,107.28h45A156.36,156.36,0,0,1,180,91.58,182.23,182.23,0,0,1,142.35,81.64Zm38.72,69.6a211.87,211.87,0,0,0-34,8.9,74.89,74.89,0,0,0,45.53,30.35C186.83,181.07,183.17,166.94,181.07,151.24Zm-32.44-79a184.91,184.91,0,0,0,33,8.9c2.09-15.18,5.75-28.26,11-37.16A70,70,0,0,0,148.63,72.22Zm60.18-30.35c-4.71,0-12.56,14.13-16.22,40.82a166.09,166.09,0,0,0,32.44.52C221.37,56,213.52,41.87,208.81,41.87Zm-16.75,107.8c3.67,28.26,12,42.92,16.75,42.92s13.08-15.18,16.75-43.44A177.18,177.18,0,0,0,192.06,149.67ZM226.6,94.2a142.9,142.9,0,0,1-14.65.52c-7.33,0-14.13-.52-20.93-1-.53,4.18-.53,8.89-1.05,14.13h37.16C227.13,102.57,226.6,98.39,226.6,94.2ZM190,118.8c0,6.8.52,13.6,1.05,19.88a200,200,0,0,1,35.58-.52c.53-5.76.53-12.56.53-19.36ZM225,43.44c5.24,9.42,8.9,23,11,38.2a130.33,130.33,0,0,0,33-9.42A75.21,75.21,0,0,0,225,43.44ZM236.55,150.2c-2.1,16.22-5.76,30.87-11.52,40.29a73.51,73.51,0,0,0,45.53-30.87A144.21,144.21,0,0,0,236.55,150.2Zm38.72-68.56c-12.56,5.76-25.64,8.9-37.68,11,.53,4.71.53,9.94,1,14.65h45A74,74,0,0,0,275.27,81.64ZM238.64,118.8c0,6.8-.52,13.6-1,20.41a162,162,0,0,1,38.73,11.51,79.66,79.66,0,0,0,7.85-31.92Zm0,0c0,6.8-.52,13.6-1,20.41a162,162,0,0,1,38.73,11.51,79.66,79.66,0,0,0,7.85-31.92Zm36.63-37.16c-12.56,5.76-25.64,8.9-37.68,11,.53,4.71.53,9.94,1,14.65h45A74,74,0,0,0,275.27,81.64ZM236.55,150.2c-2.1,16.22-5.76,30.87-11.52,40.29a73.51,73.51,0,0,0,45.53-30.87A144.21,144.21,0,0,0,236.55,150.2ZM225,43.44c5.24,9.42,8.9,23,11,38.2a130.33,130.33,0,0,0,33-9.42A75.21,75.21,0,0,0,225,43.44ZM190,118.8c0,6.8.52,13.6,1.05,19.88a200,200,0,0,1,35.58-.52c.53-5.76.53-12.56.53-19.36ZM226.6,94.2a142.9,142.9,0,0,1-14.65.52c-7.33,0-14.13-.52-20.93-1-.53,4.18-.53,8.89-1.05,14.13h37.16C227.13,102.57,226.6,98.39,226.6,94.2Zm-34.54,55.47c3.67,28.26,12,42.92,16.75,42.92s13.08-15.18,16.75-43.44A177.18,177.18,0,0,0,192.06,149.67Zm16.75-107.8c-4.71,0-12.56,14.13-16.22,40.82a166.09,166.09,0,0,0,32.44.52C221.37,56,213.52,41.87,208.81,41.87ZM148.63,72.22a184.91,184.91,0,0,0,33,8.9c2.09-15.18,5.75-28.26,11-37.16A70,70,0,0,0,148.63,72.22Zm32.44,79a211.87,211.87,0,0,0-34,8.9,74.89,74.89,0,0,0,45.53,30.35C186.83,181.07,183.17,166.94,181.07,151.24Zm-38.72-69.6A86.73,86.73,0,0,0,134,107.28h45A156.36,156.36,0,0,1,180,91.58,182.23,182.23,0,0,1,142.35,81.64ZM179,118.8H133.45a71.92,71.92,0,0,0,7.85,31.92c6.28-2.62,20.41-7.33,38.73-10.47C179.5,132.93,179,125.6,179,118.8ZM349.59,260.1H69.08L57.57,312.43H361.62Zm0,0H69.08L57.57,312.43H361.62Zm22.5-18.84H44.48l-44,134h417.1ZM247.54,354.82H171.13V342.26h76.41Zm120.89-31.4H50.24a4.77,4.77,0,0,1-4.19-2.09c-1-1.57-1.57-3.14-1-4.71l14.13-63.33a5.09,5.09,0,0,1,5.23-4.18H354.3a5.1,5.1,0,0,1,5.23,4.18l14.13,62.28a3.15,3.15,0,0,1,.52,2.09A5.8,5.8,0,0,1,368.43,323.42ZM69.08,260.1,57.57,312.43H361.62L350.11,260.1ZM0,386.74a11.21,11.21,0,0,0,9.94,5.76H408.72c4.19,0,7.85-2.62,9.95-5.76Z"/></g></g></svg>