<svg xmlns="http://www.w3.org/2000/svg" viewBox="0 0 705.91 540"><defs><style>.cls-1{fill:#333;}</style></defs><title>learning-activity-g3</title><g id="Layer_2" data-name="Layer 2"><g id="Layer_1-2" data-name="Layer 1"><path class="cls-1" d="M179.26,267.47l151,44.63a81.88,81.88,0,0,0,23.06,3,78.55,78.55,0,0,0,23.06-3l127.94-37.94V341.1h-1.49a3.52,3.52,0,0,0-3.72,3.72v19.34a3.52,3.52,0,0,0,3.72,3.72h.74l-5.95,11.9c-1.49,2.24.75,5.21,3,5.21h18.59a3.34,3.34,0,0,0,3-5.21L517,367.88h.75a3.51,3.51,0,0,0,3.71-3.72V344.82a3.51,3.51,0,0,0-3.71-3.72h-1.49V271.18l11.16-3.71c10.41-3,10.41-17.86,0-20.83L376.38,202a83,83,0,0,0-23.06-3.72c-8.18,0-15.62.74-23.06,3.72l-151,44.63C168.11,249.61,168.11,264.49,179.26,267.47Z"/><path class="cls-1" d="M353.32,343.34a102.91,102.91,0,0,1-29.75-4.47l-91.5-27.52v56.53a24.78,24.78,0,0,0,17.86,23.81l38.68,11.15a230.53,230.53,0,0,0,130.91,0l38.68-11.15a24.78,24.78,0,0,0,17.85-23.81V310.61l-93,28.26A102.91,102.91,0,0,1,353.32,343.34Z"/><path class="cls-1" d="M654.57,0H52.07C23.06,0,0,21,0,47.37V492.63C0,519,23.8,540,52.07,540H653.83c29,0,52.06-21.65,52.06-47.37V47.37C706.64,21,682.84,0,654.57,0ZM223.15,48.72c12.64,0,22.31,9.48,22.31,20.3,0,11.51-10.41,20.3-22.31,20.3-12.65,0-22.32-9.47-22.32-20.3C200.83,57.52,210.5,48.72,223.15,48.72Zm-68.43,0C167.36,48.72,177,58.2,177,69c0,11.51-10.41,20.3-22.31,20.3-12.65,0-22.32-9.47-22.32-20.3C132.4,57.52,142.82,48.72,154.72,48.72Zm-68.44,0c12.65,0,22.32,9.48,22.32,20.3,0,11.51-10.41,20.3-22.32,20.3C73.64,89.32,64,79.85,64,69,64,57.52,74.38,48.72,86.28,48.72ZM639,475c0,2-1.49,3.38-3.72,3.38H71.41c-2.23,0-3.72-1.35-3.72-3.38V138.72H639Z"/></g></g></svg>