<svg xmlns="http://www.w3.org/2000/svg" viewBox="0 0 471.68 208.98"><defs><style>.cls-1,.cls-2{fill:#09090c;}.cls-2{font-size:143.8px;font-family:Lato-Regular, Lato;letter-spacing:-0.07em;}</style></defs><title>logo-a</title><g id="Layer_2" data-name="Layer 2"><g id="Layer_1-2" data-name="Layer 1"><polygon class="cls-1" points="417.36 0 351.75 5.33 354.77 7.4 406.06 42.53 463.65 37.86 471.68 37.21 417.36 0"/><path class="cls-1" d="M371.84,26.41l-1.39,5.21-3.36,12.67c-1.81,6.81,12.82,16.6,32.68,21.88,13.47,3.58,25.87,4.16,33,2,3.4-1,5.63-2.62,6.21-4.81l4.76-17.88-39.36,3.19Z"/><polygon class="cls-1" points="470.75 40.29 467.88 40.52 465.33 46.5 457.92 63.91 463.13 65.29 467.68 66.5 470.75 40.29"/><text class="cls-2" transform="translate(0 182.74) scale(1.76 1)">SELI</text></g></g></svg>