<svg xmlns="http://www.w3.org/2000/svg" viewBox="0 0 481.04 229.22"><defs><style>.cls-1,.cls-2,.cls-3{fill:#09090c;}.cls-2{font-size:143.8px;font-family:Lato-Regular, Lato;letter-spacing:-0.07em;}.cls-3{stroke:#000;stroke-linecap:round;stroke-linejoin:round;stroke-width:3px;}</style></defs><title>logo</title><g id="Layer_2" data-name="Layer 2"><g id="Layer_1-2" data-name="Layer 1"><polygon class="cls-1" points="426.73 0 361.11 5.33 364.13 7.4 415.42 42.53 473.01 37.86 481.04 37.21 426.73 0"/><path class="cls-1" d="M381.2,26.41l-1.38,5.21-3.37,12.67c-1.81,6.81,12.82,16.6,32.69,21.88,13.46,3.58,25.86,4.16,33,2,3.4-1,5.62-2.62,6.21-4.81l4.75-17.88-39.35,3.19Z"/><polygon class="cls-1" points="480.11 40.29 477.25 40.52 474.7 46.5 467.28 63.91 472.49 65.29 477.04 66.5 480.11 40.29"/><text class="cls-2" transform="translate(9.36 182.74) scale(1.76 1)">SELI</text><rect class="cls-3" x="1.5" y="225.14" width="443.89" height="2.58"/><rect class="cls-3" x="1.73" y="28.72" width="356.37" height="2.58"/></g></g></svg>