<svg xmlns="http://www.w3.org/2000/svg" viewBox="0 0 448.68 202.98"><defs><style>.cls-1,.cls-3{opacity:0.9;}.cls-2,.cls-3{fill:#09090c;}.cls-3{font-size:143.8px;font-family:Lato-Regular, Lato;letter-spacing:-0.1em;}</style></defs><title>logo-a_2</title><g id="Layer_2" data-name="Layer 2"><g id="Layer_1-2" data-name="Layer 1"><g class="cls-1"><polygon class="cls-2" points="394.36 0 328.75 5.33 331.77 7.4 383.06 42.53 440.65 37.86 448.68 37.21 394.36 0"/><path class="cls-2" d="M348.84,26.41l-1.39,5.21-3.36,12.67c-1.81,6.81,12.82,16.6,32.68,21.88,13.47,3.58,25.87,4.16,33,2,3.4-1,5.63-2.62,6.21-4.81l4.76-17.88-39.36,3.19Z"/><polygon class="cls-2" points="447.75 40.29 444.88 40.52 442.33 46.5 434.92 63.91 440.13 65.29 444.68 66.5 447.75 40.29"/></g><text class="cls-3" transform="translate(0 176.74) scale(1.76 1)">SELI</text></g></g></svg>