<?xml version="1.0" encoding="utf-8"?>
<!-- Svg Vector Icons : http://www.onlinewebfonts.com/icon -->
<!DOCTYPE svg PUBLIC "-//W3C//DTD SVG 1.1//EN" "http://www.w3.org/Graphics/SVG/1.1/DTD/svg11.dtd">
<svg 
  version="1.1" 
  xmlns="http://www.w3.org/2000/svg" 
  xmlns:xlink="http://www.w3.org/1999/xlink" 
  x="0px" y="0px"
  width="100" height="100" 
  viewBox="0 0 1000 1000" 
  enable-background="new 0 0 1000 1000" 
  xml:space="preserve"
>
  <metadata> Svg Vector Icons : http://www.onlinewebfonts.com/icon </metadata>
  <defs>
    <style>
      .cls-1,.cls-2{fill:#555555;}.cls-2{font-size:57.24px;font-family:Lato-Regular, Lato;}.cls-3{letter-spacing:-0.02em;}.cls-4{letter-spacing:0em;}
    </style>
  </defs>
  <title>
    drop_1
  </title>
  <g id="Layer_2" data-name="Layer 2">
    <g id="Layer_1-2" data-name="Layer 1">
      <path class="cls-1" d="M898.9,990H239.1c-60.4,0-99.9-105-99.9-105l0.4-70l31.1,2.2c71.1,0,71.3-72.2,71.3-72.2c0-70-68.8-72.2-68.8-72.2h-34.4l0.6-137.8l32.5,0c64.7,0,71.3-67.8,71.3-67.8c0-74.4-71-74.4-71-74.4l-32.2,0L139.2,255l32.7-2c71.1,0,70.4-70.1,70.4-70.1c0-63.4-68.7-70-68.7-70h-34.5V45c0-19.3,15.4-35,34.5-35h619.5c19.1,0,34.5,15.7,34.5,35l69,2.2c28,0,34.5,35,34.5,35v875C931.2,983.4,898.9,990,898.9,990L898.9,990z M758.7,255H310.3v280h448.5V255L758.7,255z M863.3,88.8l-35.6-12v771.8c0,19.3-15.4,35-34.5,35l-587.5,0.4c0,24.1,35.6,36.1,35.6,36.1h586.4c36.7,0,35.6-32.8,35.6-32.8V88.8L863.3,88.8z M396.5,325h276c9.5,0,17.2,7.8,17.2,17.5c0,9.7-7.7,17.5-17.2,17.5h-276c-9.5,0-17.2-7.8-17.2-17.5C379.3,332.8,387,325,396.5,325L396.5,325z M396.5,430h276c9.5,0,17.2,7.8,17.2,17.5c0,9.7-7.7,17.5-17.2,17.5h-276c-9.5,0-17.2-7.8-17.2-17.5C379.3,437.8,387,430,396.5,430L396.5,430z M206.8,185c0,19.3-15.4,35-34.5,35h-69c-19.1,0-34.5-15.7-34.5-35c0-19.3,15.4-35,34.5-35h69C191.3,150,206.8,165.7,206.8,185L206.8,185z M70.2,465c0-19.3,15.4-35,34.5-35h67.5c19,0,34.5,15.7,34.5,35c0,19.3-15.5,35-34.5,35h-67.5C85.7,500,70.2,484.3,70.2,465L70.2,465z M103.3,710h69c19,0,34.5,15.7,34.5,35c0,19.3-15.4,35-34.5,35h-69c-19.1,0-34.5-15.7-34.5-35C68.8,725.7,84.2,710,103.3,710L103.3,710z"/>
    </g>
  </g>
</svg>