<?xml version="1.0" standalone="no"?>
<!DOCTYPE svg PUBLIC "-//W3C//DTD SVG 20010904//EN"
"http://www.w3.org/TR/2001/REC-SVG-20010904/DTD/svg10.dtd">
<svg version="1.0" xmlns="http://www.w3.org/2000/svg"
	x="0px" y="0px" viewBox="-20 -200 380 380"
	preserveAspectRatio="xMidYMid meet"
>
	<metadata>
	Created by potrace 1.15, written by Peter Selinger 2001-2017
	</metadata>
	<defs>
    <style>
      .cls-1,.cls-2{fill:#555555;}.cls-2{font-size:57.24px;font-family:Lato-Regular, Lato;}.cls-3{letter-spacing:-0.02em;}.cls-4{letter-spacing:0em;}
    </style>
  </defs>
	<g id="Layer_2" data-name="Layer 2">
		<g id="Layer_1-2" data-name="Layer 1" transform="translate(75.000000,75.000000) scale(0.015000,-0.015000)" stroke="none">
			<path class="cls-1" d="M6115 12794 c-27 -2 -120 -8 -205 -14 -610 -44 -1288 -200 -1867
			-431 -1356 -541 -2475 -1511 -3197 -2772 -461 -804 -733 -1674 -823 -2632 -24
			-251 -24 -839 0 -1090 103 -1096 446 -2081 1034 -2974 1032 -1568 2674 -2589
			4553 -2830 281 -36 439 -46 790 -46 624 0 1114 66 1716 231 1470 401 2778
			1355 3627 2645 588 893 931 1878 1034 2974 24 251 24 839 0 1090 -103 1096
			-446 2081 -1034 2974 -785 1192 -1928 2075 -3287 2540 -473 162 -980 269
			-1502 317 -157 14 -725 27 -839 18z m675 -1075 c1125 -78 2216 -528 3090
			-1275 148 -126 438 -417 564 -564 689 -808 1120 -1782 1250 -2825 28 -221 37
			-388 37 -655 0 -267 -9 -434 -37 -655 -115 -923 -463 -1788 -1022 -2538 -52
			-70 -98 -126 -103 -125 -38 14 -2087 2011 -3419 3333 -1842 1828 -3092 3070
			-3574 3553 l-558 560 98 76 c406 313 826 557 1281 740 767 309 1559 433 2393
			375z m-2410 -4054 c2297 -2287 4267 -4226 5118 -5035 l331 -315 -32 -28 c-64
			-57 -345 -265 -457 -338 -618 -407 -1329 -688 -2045 -808 -314 -53 -554 -72
			-895 -72 -267 0 -434 9 -655 37 -1042 130 -2021 563 -2825 1250 -148 126 -438
			417 -564 564 -689 808 -1120 1782 -1250 2825 -51 410 -51 900 0 1310 117 939
			476 1819 1052 2578 l105 139 291 -289 c160 -159 982 -977 1826 -1818z"/>
		</g>
	</g>
</svg>