<svg xmlns="http://www.w3.org/2000/svg" viewBox="0 0 492.85 592.7"><defs><style>.cls-1{fill:#999;}</style></defs><title>office-g</title><g id="Layer_2" data-name="Layer 2"><g id="Layer_1-2" data-name="Layer 1"><path class="cls-1" d="M1.31,478.47C-.58,477.14.13,475.13.13,473.4Q.09,297.66,0,121.91c0-3.66,1.22-5.14,4.53-6.36Q159.4,58.41,314.16,1A15.06,15.06,0,0,1,324.72.88q80.94,26,162,51.75c4.85,1.53,6.17,3.65,6.16,8.66q-.23,236,0,472c0,5.6-1.14,8.12-7,9.86-54.52,16.12-108.91,32.68-163.31,49.18-2.61.79-4.8.29-7.22-.58q-102-36.72-204.14-73.36-52.8-19-105.57-38c0-1.74,1.43-1.72,2.55-2.08,10.18.2,20.21,1.9,30.28,3.12q69.21,8.38,138.43,16.67c40.18,4.88,80.38,9.65,120.56,14.57,5.13.63,10.29,1,15.38,1.82,3.86.59,5.24-1,5.09-4.57-.06-1.49,0-3,0-4.49V106c0-7.58,0-7.56-7.58-5.81-62.5,14.44-124.94,29.17-187.43,43.65-9.94,2.3-10,2.3-10,12.34v262c0,2-.09,4,0,6,.2,4.58-1.86,7.35-6.1,9.19Q75.4,447,44,460.75C32,466,19.94,471.34,7.86,476.56c-1.83.78-3.58,1.8-5.63,1.94Z"/></g></g></svg>