<svg xmlns="http://www.w3.org/2000/svg" viewBox="0 0 386.39 478"><defs><style>.cls-1{fill:#999;}</style></defs><title>pdf-g</title><g id="Layer_2" data-name="Layer 2"><g id="Layer_1-2" data-name="Layer 1"><g id="Layer_2-2" data-name="Layer 2"><g id="Layer_1-2-2" data-name="Layer 1-2"><path class="cls-1" d="M372.73,119.38,267,13.1A44.12,44.12,0,0,0,235.23,0H44.82A44.71,44.71,0,0,0,0,44.6V433.18A44.91,44.91,0,0,0,44.82,478H341.57a44.91,44.91,0,0,0,44.82-44.82V151.11A44.56,44.56,0,0,0,372.73,119.38ZM250.84,52.89l82.62,82.62H259.4a8.49,8.49,0,0,1-8.56-8.41V52.89ZM347,433.68a5.59,5.59,0,0,1-5.54,5.54H44.82a5.58,5.58,0,0,1-5.53-5.54V44.82a6,6,0,0,1,1.51-4,4.93,4.93,0,0,1,4-1.51H211.55v87.65a47.83,47.83,0,0,0,47.82,47.84H346.5v259Z"/><path class="cls-1" d="M208,282.07a120.37,120.37,0,0,1-15.61-22.19c11.1-37.77,12.59-64,3.53-77.06-4.54-7-12.1-10.58-20.65-10.58-10.08,0-18.14,4.53-21.67,13.57-7.55,17.62,4,49.86,17.63,76.05a401.49,401.49,0,0,1-14.65,40.35h0a203.15,203.15,0,0,1-11.09,23.68C115.28,337.48,82,355.1,78,376.26a20.87,20.87,0,0,0,8.06,21.16,19.86,19.86,0,0,0,13.56,5,25.35,25.35,0,0,0,6.05-1c18.63-4.53,38.22-32.24,53.39-59.44,8.56-3,18.63-6.55,29.21-9.57,12.59-3.52,24.18-6.54,34.26-8.55,18.63,15.1,35.25,23.17,49.32,23.17,10.08.5,19.14-3.53,26.19-11.1,11.1-11.1,6.55-21.15,5-24.17-8.05-13.57-35.25-16.62-75-9.08C222.13,296.67,215.08,289.62,208,282.07ZM101.24,382.26c-1.51.51-2,0-3.53-2.46,1-5,10.58-14.62,31.24-24.67C118.38,370.22,108.29,380.8,101.24,382.26Zm70-188.38c.51-1,.51-1.5,3.53-1.5s4,1,4.54,2c3.52,5,3.52,18.14-.51,38.78-6.55-17.08-10.58-32.7-7.56-39.25Zm12.09,119.38c-3.52,1-7.55,2-11.58,3.53,1-2.47,2-5,3-7.06h0c3.53-9.06,7.05-17.62,9.57-25.68a136.58,136.58,0,0,0,9.06,11.58c4,4,8.07,8.06,11.59,12.09-6.54,1.54-14.1,3.57-21.66,5.58Zm101.75,8.58c-2.46,4.53-6.54,5-12.09,5-6.05,0-14.1-3-22.67-8.06C275,316.32,287.61,317.33,285.09,321.84Z"/></g></g></g></g></svg>