<svg xmlns="http://www.w3.org/2000/svg" viewBox="0 0 313.3 387.64"><defs><style>.cls-1{fill:#fff;}</style></defs><title>pdf-w</title><g id="Layer_2" data-name="Layer 2"><g id="Layer_1-2" data-name="Layer 1"><path class="cls-1" d="M302.27,96.81,216.49,10.62A35.82,35.82,0,0,0,190.76,0H36.35A36.26,36.26,0,0,0,0,36.35V351.29a36.43,36.43,0,0,0,36.35,36.35H277a36.43,36.43,0,0,0,36.35-36.35V122.54A36.17,36.17,0,0,0,302.27,96.81ZM203.42,42.89l67,67H210.36a6.88,6.88,0,0,1-6.94-6.94Zm78,308.81a4.53,4.53,0,0,1-4.49,4.49H36.35a4.53,4.53,0,0,1-4.49-4.49V36.35a4.88,4.88,0,0,1,1.23-3.26,4,4,0,0,1,3.26-1.23H171.56v71.08a38.79,38.79,0,0,0,38.8,38.8H281v210Z"/><path class="cls-1" d="M168.7,228.75a97.58,97.58,0,0,1-12.66-18c9-30.63,10.21-51.87,2.86-62.49-3.68-5.72-9.81-8.58-16.75-8.58-8.17,0-14.71,3.67-17.57,11-6.12,14.29,3.27,40.44,14.3,61.68A328.34,328.34,0,0,1,127,245.08h0a164.51,164.51,0,0,1-9,19.2c-24.51,9.4-51.47,23.69-54.74,40.85a16.93,16.93,0,0,0,6.54,17.16,16.09,16.09,0,0,0,11,4.08,20.42,20.42,0,0,0,4.9-.82c15.11-3.67,31-26.14,43.3-48.2,6.94-2.45,15.11-5.31,23.69-7.76,10.21-2.86,19.61-5.31,27.78-6.94,15.11,12.25,28.59,18.79,40,18.79,8.17.41,15.52-2.86,21.24-9,9-9,5.31-17.15,4.08-19.6-6.53-11-28.59-13.48-60.86-7.36C180.14,240.59,174.42,234.87,168.7,228.75ZM82.1,310c-1.22.41-1.63,0-2.86-2,.82-4.08,8.58-11.85,25.33-20C96,300.23,87.82,308.81,82.1,310Zm56.78-152.77c.41-.81.41-1.22,2.86-1.22s3.27.81,3.68,1.63c2.86,4.09,2.86,14.71-.41,31.45C139.7,175.24,136.43,162.57,138.88,157.26Zm9.8,96.81c-2.85.82-6.12,1.64-9.39,2.86.82-2,1.63-4.08,2.45-5.72h0c2.86-7.35,5.72-14.29,7.76-20.83a108.33,108.33,0,0,0,7.35,9.39c3.27,3.27,6.54,6.54,9.4,9.81C160.94,250.8,154.81,252.44,148.68,254.07ZM231.2,261c-2,3.67-5.31,4.08-9.81,4.08-4.9,0-11.43-2.45-18.38-6.54C223,256.52,233.24,257.34,231.2,261Z"/></g></g></svg>