<svg xmlns="http://www.w3.org/2000/svg" viewBox="0 0 429 429"><defs><style>.cls-1{fill:#ccc;}</style></defs><title>personal-development-gc</title><g id="Layer_2" data-name="Layer 2"><g id="Layer_1-2" data-name="Layer 1"><path class="cls-1" d="M422.21,175.71l-39.33-9.83a171.35,171.35,0,0,0-14.74-36.11l20.73-34.59a9.17,9.17,0,0,0-1.34-11L345,41.65a9.07,9.07,0,0,0-10.91-1.34L299.14,61A169.15,169.15,0,0,0,263.3,46.21L253.38,6.79A8.9,8.9,0,0,0,244.71,0H184.38a8.89,8.89,0,0,0-8.67,6.79L165.79,46A181,181,0,0,0,129.86,61L95.1,40.13a9,9,0,0,0-10.91,1.34L41.65,84a9.07,9.07,0,0,0-1.34,10.91L61,129.68a169.52,169.52,0,0,0-15,36.11L6.7,175.71A8.91,8.91,0,0,0,0,184.38v60.15a8.91,8.91,0,0,0,6.7,8.67l39.51,9.92A162.76,162.76,0,0,0,61,299l-20.91,35a9.05,9.05,0,0,0,1.34,10.9L84,387.35a8.92,8.92,0,0,0,10.91,1.34L129.86,368a173.59,173.59,0,0,0,35.75,14.83l10.1,39.51a8.91,8.91,0,0,0,8.67,6.7h60.15a8.89,8.89,0,0,0,8.67-6.79L263,382.79A163.25,163.25,0,0,0,299,368l35.12,20.91A8.94,8.94,0,0,0,345,387.53L387.35,345a9.07,9.07,0,0,0,1.34-10.91L367.87,299a174.86,174.86,0,0,0,14.92-35.66l39.42-9.92a8.9,8.9,0,0,0,6.79-8.67V184.38A8.89,8.89,0,0,0,422.21,175.71Zm-142,134.87A116.46,116.46,0,0,1,98,214.5C98,150.24,150.24,98.05,214.5,98.05a116.4,116.4,0,0,1,65.69,212.53Z"/><path class="cls-1" d="M174.28,175.17a40.22,40.22,0,0,1,80.44,0c0,22.44-17.61,48.45-40.22,48.45S174.28,197.61,174.28,175.17Z"/><path class="cls-1" d="M230.86,231.75a8.78,8.78,0,0,0-7.42,4l-9.12,13.5-8.67-13.41a9,9,0,0,0-7.51-4.11c-22.52,0-53.35,0-53.35,33v19.33A96.91,96.91,0,0,0,207,312.89c1.07.07,2.15.08,3.22.12,1.41.06,2.82.16,4.24.16,2.25,0,4.48-.1,6.71-.25.24,0,.48,0,.72,0A97.28,97.28,0,0,0,284.12,284V264.73C284.12,231.75,253.29,231.75,230.86,231.75Z"/></g></g></svg>