<svg xmlns="http://www.w3.org/2000/svg" viewBox="0 0 374.37 307"><defs><style>.cls-1{fill:#fff;}</style></defs><title>presentation-w</title><g id="Layer_2" data-name="Layer 2"><g id="Layer_1-2" data-name="Layer 1"><path class="cls-1" d="M0,119.83a30,30,0,0,1,30-30H344.38a30,30,0,0,1,30,30V277.05a30,30,0,0,1-30,29.95H30A30,30,0,0,1,0,277.05Z"/><path class="cls-1" d="M22.43,56.18A11.24,11.24,0,0,1,33.67,44.94h307a11.24,11.24,0,1,1,0,22.47h-307A11.19,11.19,0,0,1,22.43,56.3Z"/><path class="cls-1" d="M44.9,11.24A11.24,11.24,0,0,1,56.14,0H318.19a11.24,11.24,0,1,1,0,22.47h-262A11.19,11.19,0,0,1,44.9,11.32Z"/></g></g></svg>