<svg xmlns="http://www.w3.org/2000/svg" viewBox="0 0 558.58 532.85"><defs><style>.cls-1{fill:#333;}</style></defs><title>quiz-g3</title><g id="Layer_2" data-name="Layer 2"><g id="Layer_1-2" data-name="Layer 1"><path class="cls-1" d="M381.47,219.5V54.5A54.27,54.27,0,0,0,327,0H54.5A54.27,54.27,0,0,0,0,54.5v165C0,246,18.92,267.94,43.9,273.24v48.44a20.15,20.15,0,0,0,6.81,15.13c3.79,3.79,9.08,5.3,14.38,5.3a20.68,20.68,0,0,0,14.38-6.05L141.54,274h187C356.49,274.75,381.47,249.77,381.47,219.5Zm-176.35-5.3a8.4,8.4,0,0,1-8.33,8.32H174.84a8.39,8.39,0,0,1-8.32-8.32V199.82a8.4,8.4,0,0,1,8.32-8.33h21.95a8.41,8.41,0,0,1,8.33,8.33Zm34.81-84.77a58.65,58.65,0,0,1-22,18.92c-5.29,3-8.32,6.81-9.84,10.6-1.51,2.27-2.27,6.05-2.27,9.84,0,3-3,5.29-6.05,5.29H172.57c-3.78,0-6-3-6-6.81.75-7.57,2.27-13.62,5.29-17.41,3.79-5.29,10.6-11.35,20.44-18.92,5.3-3,9.08-7.57,12.11-12.11s4.54-10.6,4.54-16.65c0-6.81-1.51-11.35-5.3-15.89-3.78-3.79-8.32-6.06-15.14-6.06-5.29,0-9.83,1.51-12.86,4.54a15.64,15.64,0,0,0-4.54,7.57c-.76,3.78-4.54,6.06-9.09,6.06l-25-.76c-3,0-5.3-3-5.3-6.06.76-13.62,6.05-23.46,15.14-30.27C157.43,53,171.06,49.2,188.46,49.2q27.25,0,43.15,13.62c10.59,9.08,15.89,21.95,15.89,37.85C248.26,112.78,245.23,121.1,239.93,129.43Z"/><path class="cls-1" d="M503.33,190h-82.5V219.5a94.65,94.65,0,0,1-94.61,94.61H175.6v96.12a54.27,54.27,0,0,0,54.49,54.5H417l62.07,62.06a20.65,20.65,0,0,0,14.38,6.06,23.86,23.86,0,0,0,14.38-5.3c3.79-3.78,6.81-9.08,6.81-15.14V464c25-5.3,43.9-27.25,43.9-53.74V244.47C558.58,214.2,533.61,190,503.33,190Z"/></g></g></svg>