<svg xmlns="http://www.w3.org/2000/svg" viewBox="0 0 603.05 622.07"><defs><style>.cls-1{fill:#333;}</style></defs><title>quiz-g3</title><g id="Layer_2" data-name="Layer 2"><g id="Layer_1-2" data-name="Layer 1"><path class="cls-1" d="M67,67.1V534.52l244.59-121a33.52,33.52,0,0,1,48.14,30,48.65,48.65,0,1,0,97.05,7.09,46.61,46.61,0,0,0,0-7.09V354.39H524.5v89.16a116,116,0,0,1-94.73,113.82L33.52,622.07A33.52,33.52,0,0,1,0,588.55v-555A33.52,33.52,0,0,1,33.52,0H195.28a100.82,100.82,0,0,0-12.94,49.76V67.1Zm536,185.7a49.76,49.76,0,0,1-49.76,49.76h-137l-.32.45L351.8,367.13A10.09,10.09,0,0,1,334.59,360V302.56H283.92a49.75,49.75,0,0,1-49.75-49.76v-203A49.75,49.75,0,0,1,283.92,0H553.29a49.76,49.76,0,0,1,49.76,49.76ZM432.74,212.3a8.28,8.28,0,0,0-8.28-8.29H403.24A8.28,8.28,0,0,0,395,212.3v13.78a8.28,8.28,0,0,0,8.28,8.28h21.22a8.28,8.28,0,0,0,8.28-8.28Zm42.06-94.08a46.09,46.09,0,0,0-15.33-36.43,61.62,61.62,0,0,0-42.13-13.53A64.08,64.08,0,0,0,377.16,80a38.83,38.83,0,0,0-14.75,29.63,5.3,5.3,0,0,0,5,5.62h.27l24.14.46a8.68,8.68,0,0,0,8.6-6.09,15.53,15.53,0,0,1,4.66-7.57,18,18,0,0,1,12.29-4.59,18.37,18.37,0,0,1,14.43,5.63,21.66,21.66,0,0,1,5.05,15.08,30,30,0,0,1-4.33,16.11A36.62,36.62,0,0,1,420.64,146a83.12,83.12,0,0,0-20.12,18.12,35.35,35.35,0,0,0-5.3,17.21,5.88,5.88,0,0,0,5.27,6.44l.61,0H427a5.89,5.89,0,0,0,5.88-5.24A29.38,29.38,0,0,1,435.2,173a25.92,25.92,0,0,1,9.71-10.16,59.58,59.58,0,0,0,21.29-18.57,43.73,43.73,0,0,0,8.67-26.14Z"/></g></g></svg>