<svg xmlns="http://www.w3.org/2000/svg" viewBox="0 0 1662 555"><defs><style>.cls-1{fill:#1565c0;}.cls-2{font-size:196.73px;}.cls-2,.cls-4,.cls-7{fill:#fff;}.cls-2,.cls-4{font-family:ArcadeClassic, ArcadeClassic;}.cls-3{fill:#1976d2;}.cls-4{font-size:180.65px;}.cls-5{fill:#1e88e5;}.cls-6{fill:#00897b;}.cls-7{font-size:85.55px;font-family:Lato-Regular, Lato;}.cls-8{letter-spacing:-0.02em;}.cls-9{letter-spacing:0em;}</style></defs><title>seli-logo-w</title><g id="Layer_2" data-name="Layer 2"><g id="Layer_1-2" data-name="Layer 1"><rect class="cls-1" x="110.11" width="269.44" height="242.68" rx="12" ry="12"/><text class="cls-2" transform="translate(199.03 180.11)">S</text><rect class="cls-3" x="393.58" y="19.59" width="247.42" height="222.85" rx="12" ry="12"/><text class="cls-4" transform="translate(475.23 184.99)">E</text><rect class="cls-5" x="132.88" y="257.15" width="247.42" height="222.85" rx="12" ry="12"/><text class="cls-4" transform="translate(231.77 422.54)">L</text><rect class="cls-6" x="393.56" y="253.59" width="269.44" height="242.68" rx="12" ry="12"/><text class="cls-2" transform="translate(477.51 433.7)">I</text><text class="cls-7" transform="translate(734 120.42) scale(1.75 1)">Smart<tspan x="0" y="102.66">Ecosystem for</tspan><tspan class="cls-8"><tspan x="0" y="205.31">L</tspan><tspan class="cls-9" x="42.43" y="205.31">earning and</tspan></tspan><tspan x="0" y="307.97">Inclusion</tspan></text><rect class="cls-1" x="74.67" y="116.88" width="37.33" height="37.33"/><rect class="cls-1" x="77.16" y="53" width="32.36" height="32.36"/><rect class="cls-1" x="43.14" y="84.53" width="34.84" height="34.84"/><rect class="cls-1" x="20.74" y="115.22" width="24.89" height="24.89"/><rect class="cls-1" y="62.13" width="20.74" height="20.74"/><rect class="cls-6" x="637.02" y="510.16" width="31.14" height="31.14"/><rect class="cls-6" x="674.39" y="484" width="21.18" height="21.18"/><rect class="cls-6" x="678.12" y="520.12" width="34.88" height="34.88"/></g></g></svg>