<svg xmlns="http://www.w3.org/2000/svg" xmlns:xlink="http://www.w3.org/1999/xlink" viewBox="0 0 1650 558.04"><defs><style>.cls-1{fill:url(#linear-gradient);}.cls-2{fill:url(#linear-gradient-2);}.cls-3{fill:url(#linear-gradient-3);}.cls-4{fill:url(#linear-gradient-4);}.cls-5{fill:url(#linear-gradient-5);}.cls-6{fill:url(#linear-gradient-6);}.cls-7{fill:url(#linear-gradient-7);}.cls-8{fill:url(#linear-gradient-8);}.cls-9{fill:url(#linear-gradient-9);}.cls-10{fill:url(#linear-gradient-10);}.cls-11{fill:url(#linear-gradient-11);}.cls-12{fill:url(#linear-gradient-12);}.cls-13{fill:url(#linear-gradient-13);}.cls-14{fill:url(#linear-gradient-14);}.cls-15{fill:url(#linear-gradient-15);}.cls-16{fill:url(#linear-gradient-16);}.cls-17{fill:url(#linear-gradient-17);}.cls-18{fill:url(#linear-gradient-18);}.cls-19{fill:url(#linear-gradient-19);}.cls-20{fill:url(#linear-gradient-20);}.cls-21{fill:url(#linear-gradient-21);}.cls-22{fill:url(#linear-gradient-22);}.cls-23{fill:url(#linear-gradient-23);}.cls-24{fill:url(#linear-gradient-24);}.cls-25{fill:url(#linear-gradient-25);}.cls-26{fill:url(#linear-gradient-26);}.cls-27{fill:url(#linear-gradient-27);}.cls-28{fill:url(#linear-gradient-28);}.cls-29{fill:url(#linear-gradient-29);}.cls-30{fill:url(#linear-gradient-30);}.cls-31{fill:url(#linear-gradient-31);}.cls-32{fill:url(#linear-gradient-32);}.cls-33{fill:url(#linear-gradient-33);}.cls-34{fill:url(#linear-gradient-34);}.cls-35{fill:url(#linear-gradient-35);}.cls-36{fill:url(#linear-gradient-36);}.cls-37{fill:url(#linear-gradient-37);}.cls-38{fill:url(#linear-gradient-38);}.cls-39{fill:url(#linear-gradient-39);}.cls-40{fill:url(#linear-gradient-40);}.cls-41{fill:url(#linear-gradient-41);}.cls-42{fill:url(#linear-gradient-42);}.cls-43{fill:url(#linear-gradient-43);}.cls-44{fill:url(#linear-gradient-44);}.cls-45{fill:url(#linear-gradient-45);}.cls-46{fill:url(#linear-gradient-46);}.cls-47{fill:url(#linear-gradient-47);}.cls-48{fill:url(#linear-gradient-48);}.cls-49{fill:url(#linear-gradient-49);}.cls-50{fill:url(#linear-gradient-50);}.cls-51{fill:url(#linear-gradient-51);}.cls-52{fill:url(#linear-gradient-52);}.cls-53{fill:url(#linear-gradient-53);}.cls-54{fill:url(#linear-gradient-54);}.cls-55{fill:url(#linear-gradient-55);}.cls-56{fill:url(#linear-gradient-56);}.cls-57{fill:url(#linear-gradient-57);}.cls-58{fill:url(#linear-gradient-58);}.cls-59{fill:url(#linear-gradient-59);}.cls-60{fill:url(#linear-gradient-60);}.cls-61{fill:url(#linear-gradient-61);}.cls-62{fill:url(#linear-gradient-62);}.cls-63{fill:url(#linear-gradient-63);}.cls-64{fill:url(#linear-gradient-64);}.cls-65{fill:url(#linear-gradient-65);}.cls-66{fill:url(#linear-gradient-66);}.cls-67{fill:url(#linear-gradient-67);}.cls-68{fill:#006064;}.cls-69{fill:url(#linear-gradient-68);}.cls-70{fill:url(#linear-gradient-69);}.cls-71{fill:url(#linear-gradient-70);}.cls-72{fill:url(#linear-gradient-71);}.cls-73{font-size:291.06px;}.cls-73,.cls-74,.cls-75,.cls-76{fill:#fff;}.cls-73,.cls-74,.cls-75{font-family:ArcadeClassic, ArcadeClassic;}.cls-74{font-size:309.31px;}.cls-75{font-size:292.2px;}.cls-76{font-size:109.75px;font-family:Lato-Regular, Lato;}.cls-77{letter-spacing:-0.02em;}.cls-78{fill:url(#linear-gradient-72);}.cls-79{fill:url(#linear-gradient-73);}.cls-80{fill:url(#linear-gradient-74);}.cls-81{fill:url(#linear-gradient-75);}</style><linearGradient id="linear-gradient" x1="237.36" y1="42.99" x2="304.06" y2="42.99" gradientUnits="userSpaceOnUse"><stop offset="0" stop-color="#01579b"/><stop offset="1" stop-color="#0277bd"/></linearGradient><linearGradient id="linear-gradient-2" x1="237.36" y1="109.7" x2="304.06" y2="109.7" xlink:href="#linear-gradient"/><linearGradient id="linear-gradient-3" x1="237.36" y1="176.4" x2="304.06" y2="176.4" xlink:href="#linear-gradient"/><linearGradient id="linear-gradient-4" x1="237.36" y1="243.1" x2="304.06" y2="243.1" xlink:href="#linear-gradient"/><linearGradient id="linear-gradient-5" x1="304.06" y1="42.99" x2="370.76" y2="42.99" gradientUnits="userSpaceOnUse"><stop offset="0" stop-color="#0277bd"/><stop offset="1" stop-color="#0277bd"/></linearGradient><linearGradient id="linear-gradient-6" x1="304.06" y1="109.7" x2="370.76" y2="109.7" xlink:href="#linear-gradient-5"/><linearGradient id="linear-gradient-7" x1="304.06" y1="176.4" x2="370.76" y2="176.4" xlink:href="#linear-gradient-5"/><linearGradient id="linear-gradient-8" x1="304.06" y1="243.1" x2="370.76" y2="243.1" xlink:href="#linear-gradient-5"/><linearGradient id="linear-gradient-9" x1="370.76" y1="42.99" x2="437.46" y2="42.99" gradientUnits="userSpaceOnUse"><stop offset="0" stop-color="#0277bd"/><stop offset="1" stop-color="#0288d1"/></linearGradient><linearGradient id="linear-gradient-10" x1="370.76" y1="109.7" x2="437.46" y2="109.7" xlink:href="#linear-gradient-9"/><linearGradient id="linear-gradient-11" x1="370.76" y1="176.4" x2="437.46" y2="176.4" xlink:href="#linear-gradient-9"/><linearGradient id="linear-gradient-12" x1="370.76" y1="243.1" x2="437.46" y2="243.1" xlink:href="#linear-gradient-9"/><linearGradient id="linear-gradient-13" x1="437.46" y1="42.99" x2="504.17" y2="42.99" gradientUnits="userSpaceOnUse"><stop offset="0" stop-color="#0288d1"/><stop offset="1" stop-color="#039be5"/></linearGradient><linearGradient id="linear-gradient-14" x1="437.46" y1="109.7" x2="504.17" y2="109.7" xlink:href="#linear-gradient-13"/><linearGradient id="linear-gradient-15" x1="437.46" y1="176.4" x2="504.17" y2="176.4" xlink:href="#linear-gradient-13"/><linearGradient id="linear-gradient-16" x1="437.46" y1="243.1" x2="504.17" y2="243.1" xlink:href="#linear-gradient-13"/><linearGradient id="linear-gradient-17" x1="513.26" y1="42.99" x2="579.96" y2="42.99" gradientUnits="userSpaceOnUse"><stop offset="0" stop-color="#039be5"/><stop offset="1" stop-color="#039be5"/></linearGradient><linearGradient id="linear-gradient-18" x1="513.26" y1="109.7" x2="579.96" y2="109.7" xlink:href="#linear-gradient-17"/><linearGradient id="linear-gradient-19" x1="513.26" y1="176.4" x2="579.96" y2="176.4" xlink:href="#linear-gradient-17"/><linearGradient id="linear-gradient-20" x1="513.26" y1="243.1" x2="579.96" y2="243.1" xlink:href="#linear-gradient-17"/><linearGradient id="linear-gradient-21" x1="579.96" y1="42.99" x2="646.67" y2="42.99" gradientUnits="userSpaceOnUse"><stop offset="0" stop-color="#039be5"/><stop offset="1" stop-color="#03a9f4"/></linearGradient><linearGradient id="linear-gradient-22" x1="579.96" y1="109.7" x2="646.67" y2="109.7" xlink:href="#linear-gradient-21"/><linearGradient id="linear-gradient-23" x1="579.96" y1="176.4" x2="646.67" y2="176.4" xlink:href="#linear-gradient-21"/><linearGradient id="linear-gradient-24" x1="579.96" y1="243.1" x2="646.67" y2="243.1" xlink:href="#linear-gradient-21"/><linearGradient id="linear-gradient-25" x1="646.67" y1="42.99" x2="713.37" y2="42.99" gradientUnits="userSpaceOnUse"><stop offset="0" stop-color="#03a9f4"/><stop offset="1" stop-color="#03a9f4"/></linearGradient><linearGradient id="linear-gradient-26" x1="646.67" y1="109.7" x2="713.37" y2="109.7" xlink:href="#linear-gradient-25"/><linearGradient id="linear-gradient-27" x1="646.67" y1="176.4" x2="713.37" y2="176.4" xlink:href="#linear-gradient-25"/><linearGradient id="linear-gradient-28" x1="646.67" y1="243.1" x2="713.37" y2="243.1" xlink:href="#linear-gradient-25"/><linearGradient id="linear-gradient-29" x1="713.37" y1="42.99" x2="780.07" y2="42.99" gradientUnits="userSpaceOnUse"><stop offset="0" stop-color="#03a9f4"/><stop offset="1" stop-color="#29b6f6"/></linearGradient><linearGradient id="linear-gradient-30" x1="713.37" y1="109.7" x2="780.07" y2="109.7" xlink:href="#linear-gradient-29"/><linearGradient id="linear-gradient-31" x1="713.37" y1="176.4" x2="780.07" y2="176.4" xlink:href="#linear-gradient-29"/><linearGradient id="linear-gradient-32" x1="713.37" y1="243.1" x2="780.07" y2="243.1" xlink:href="#linear-gradient-29"/><linearGradient id="linear-gradient-33" x1="237.36" y1="317.87" x2="304.06" y2="317.87" gradientUnits="userSpaceOnUse"><stop offset="0" stop-color="#006064"/><stop offset="1" stop-color="#00796b"/></linearGradient><linearGradient id="linear-gradient-34" x1="237.36" y1="384.57" x2="304.06" y2="384.57" xlink:href="#linear-gradient-33"/><linearGradient id="linear-gradient-35" x1="237.36" y1="451.27" x2="304.06" y2="451.27" xlink:href="#linear-gradient-33"/><linearGradient id="linear-gradient-36" x1="237.36" y1="517.97" x2="304.06" y2="517.97" xlink:href="#linear-gradient-33"/><linearGradient id="linear-gradient-37" x1="304.06" y1="317.87" x2="370.76" y2="317.87" gradientUnits="userSpaceOnUse"><stop offset="0" stop-color="#00796b"/><stop offset="1" stop-color="#00796b"/></linearGradient><linearGradient id="linear-gradient-38" x1="304.06" y1="384.57" x2="370.76" y2="384.57" xlink:href="#linear-gradient-37"/><linearGradient id="linear-gradient-39" x1="304.06" y1="451.27" x2="370.76" y2="451.27" xlink:href="#linear-gradient-37"/><linearGradient id="linear-gradient-40" x1="304.06" y1="517.97" x2="370.76" y2="517.97" xlink:href="#linear-gradient-37"/><linearGradient id="linear-gradient-41" x1="370.76" y1="317.87" x2="437.46" y2="317.87" gradientUnits="userSpaceOnUse"><stop offset="0" stop-color="#00796b"/><stop offset="1" stop-color="#00897b"/></linearGradient><linearGradient id="linear-gradient-42" x1="370.76" y1="384.57" x2="437.46" y2="384.57" xlink:href="#linear-gradient-41"/><linearGradient id="linear-gradient-43" x1="370.76" y1="451.27" x2="437.46" y2="451.27" xlink:href="#linear-gradient-41"/><linearGradient id="linear-gradient-44" x1="370.76" y1="517.97" x2="437.46" y2="517.97" xlink:href="#linear-gradient-41"/><linearGradient id="linear-gradient-45" x1="437.46" y1="317.87" x2="504.17" y2="317.87" gradientUnits="userSpaceOnUse"><stop offset="0" stop-color="#00897b"/><stop offset="1" stop-color="#009688"/></linearGradient><linearGradient id="linear-gradient-46" x1="437.46" y1="384.57" x2="504.17" y2="384.57" xlink:href="#linear-gradient-45"/><linearGradient id="linear-gradient-47" x1="437.46" y1="451.27" x2="504.17" y2="451.27" xlink:href="#linear-gradient-45"/><linearGradient id="linear-gradient-48" x1="437.46" y1="517.97" x2="504.17" y2="517.97" xlink:href="#linear-gradient-45"/><linearGradient id="linear-gradient-49" x1="513.26" y1="317.87" x2="579.96" y2="317.87" gradientUnits="userSpaceOnUse"><stop offset="0" stop-color="#009688"/><stop offset="1" stop-color="#009688"/></linearGradient><linearGradient id="linear-gradient-50" x1="513.26" y1="384.57" x2="579.96" y2="384.57" xlink:href="#linear-gradient-49"/><linearGradient id="linear-gradient-51" x1="513.26" y1="451.27" x2="579.96" y2="451.27" xlink:href="#linear-gradient-49"/><linearGradient id="linear-gradient-52" x1="513.26" y1="517.97" x2="579.96" y2="517.97" xlink:href="#linear-gradient-49"/><linearGradient id="linear-gradient-53" x1="579.96" y1="317.87" x2="646.67" y2="317.87" gradientUnits="userSpaceOnUse"><stop offset="0" stop-color="#009688"/><stop offset="1" stop-color="#26a69a"/></linearGradient><linearGradient id="linear-gradient-54" x1="579.96" y1="384.57" x2="646.67" y2="384.57" xlink:href="#linear-gradient-53"/><linearGradient id="linear-gradient-55" x1="579.96" y1="451.27" x2="646.67" y2="451.27" xlink:href="#linear-gradient-53"/><linearGradient id="linear-gradient-56" x1="579.96" y1="517.97" x2="646.67" y2="517.97" xlink:href="#linear-gradient-53"/><linearGradient id="linear-gradient-57" x1="646.67" y1="317.87" x2="713.37" y2="317.87" gradientUnits="userSpaceOnUse"><stop offset="0" stop-color="#26a69a"/><stop offset="1" stop-color="#26a69a"/></linearGradient><linearGradient id="linear-gradient-58" x1="646.67" y1="384.57" x2="713.37" y2="384.57" xlink:href="#linear-gradient-57"/><linearGradient id="linear-gradient-59" x1="646.67" y1="451.27" x2="713.37" y2="451.27" xlink:href="#linear-gradient-57"/><linearGradient id="linear-gradient-60" x1="646.67" y1="517.97" x2="713.37" y2="517.97" xlink:href="#linear-gradient-57"/><linearGradient id="linear-gradient-61" x1="713.37" y1="317.87" x2="780.07" y2="317.87" gradientUnits="userSpaceOnUse"><stop offset="0" stop-color="#26a69a"/><stop offset="1" stop-color="#4db6ac"/></linearGradient><linearGradient id="linear-gradient-62" x1="713.37" y1="384.57" x2="780.07" y2="384.57" xlink:href="#linear-gradient-61"/><linearGradient id="linear-gradient-63" x1="713.37" y1="451.27" x2="780.07" y2="451.27" xlink:href="#linear-gradient-61"/><linearGradient id="linear-gradient-64" x1="713.37" y1="517.97" x2="780.07" y2="517.97" xlink:href="#linear-gradient-61"/><linearGradient id="linear-gradient-65" x1="50.71" y1="96.85" x2="102.87" y2="96.85" gradientUnits="userSpaceOnUse"><stop offset="0" stop-color="#01579b" stop-opacity="0.5"/><stop offset="1" stop-color="#01579b" stop-opacity="0.7"/></linearGradient><linearGradient id="linear-gradient-66" x1="110.32" y1="60.53" x2="138.26" y2="60.53" gradientUnits="userSpaceOnUse"><stop offset="0" stop-color="#01579b"/><stop offset="1" stop-color="#01579b"/></linearGradient><linearGradient id="linear-gradient-67" x1="171.6" y1="472.11" x2="237.38" y2="472.11" gradientUnits="userSpaceOnUse"><stop offset="0" stop-color="#006064" stop-opacity="0.7"/><stop offset="1" stop-color="#006064"/></linearGradient><linearGradient id="linear-gradient-68" x1="171.6" y1="355.51" x2="237.38" y2="355.51" xlink:href="#linear-gradient-67"/><linearGradient id="linear-gradient-69" x1="120.78" y1="413.81" x2="171.6" y2="413.81" gradientUnits="userSpaceOnUse"><stop offset="0" stop-color="#006064" stop-opacity="0.5"/><stop offset="1" stop-color="#006064" stop-opacity="0.7"/></linearGradient><linearGradient id="linear-gradient-70" x1="106.77" y1="155.41" x2="172.54" y2="155.41" gradientUnits="userSpaceOnUse"><stop offset="0" stop-color="#01579b" stop-opacity="0.7"/><stop offset="1" stop-color="#01579b" stop-opacity="0.9"/></linearGradient><linearGradient id="linear-gradient-71" x1="105.83" y1="289.74" x2="171.6" y2="289.74" xlink:href="#linear-gradient-69"/><linearGradient id="linear-gradient-72" x1="171.87" y1="90.06" x2="237.65" y2="90.06" gradientUnits="userSpaceOnUse"><stop offset="0" stop-color="#01579b" stop-opacity="0.9"/><stop offset="1" stop-color="#01579b"/></linearGradient><linearGradient id="linear-gradient-73" x1="171.92" y1="221.61" x2="237.69" y2="221.61" xlink:href="#linear-gradient-72"/><linearGradient id="linear-gradient-74" x1="40.21" y1="220.63" x2="105.98" y2="220.63" xlink:href="#linear-gradient-65"/><linearGradient id="linear-gradient-75" y1="166.7" x2="40.14" y2="166.7" gradientUnits="userSpaceOnUse"><stop offset="0" stop-color="#01579b" stop-opacity="0.1"/><stop offset="1" stop-color="#01579b" stop-opacity="0.5"/></linearGradient></defs><title>seli-logo-w_7</title><g id="Layer_2" data-name="Layer 2"><g id="Layer_1-2" data-name="Layer 1"><rect class="cls-1" x="237.36" y="9.64" width="66.7" height="66.7"/><rect class="cls-2" x="237.36" y="76.35" width="66.7" height="66.7"/><rect class="cls-3" x="237.36" y="143.05" width="66.7" height="66.7"/><rect class="cls-4" x="237.36" y="209.75" width="66.7" height="66.7"/><rect class="cls-5" x="304.06" y="9.64" width="66.7" height="66.7"/><rect class="cls-6" x="304.06" y="76.35" width="66.7" height="66.7"/><rect class="cls-7" x="304.06" y="143.05" width="66.7" height="66.7"/><rect class="cls-8" x="304.06" y="209.75" width="66.7" height="66.7"/><rect class="cls-9" x="370.76" y="9.64" width="66.7" height="66.7"/><rect class="cls-10" x="370.76" y="76.35" width="66.7" height="66.7"/><rect class="cls-11" x="370.76" y="143.05" width="66.7" height="66.7"/><rect class="cls-12" x="370.76" y="209.75" width="66.7" height="66.7"/><rect class="cls-13" x="437.46" y="9.64" width="66.7" height="66.7"/><rect class="cls-14" x="437.46" y="76.35" width="66.7" height="66.7"/><rect class="cls-15" x="437.46" y="143.05" width="66.7" height="66.7"/><rect class="cls-16" x="437.46" y="209.75" width="66.7" height="66.7"/><rect class="cls-17" x="513.26" y="9.64" width="66.7" height="66.7"/><rect class="cls-18" x="513.26" y="76.35" width="66.7" height="66.7"/><rect class="cls-19" x="513.26" y="143.05" width="66.7" height="66.7"/><rect class="cls-20" x="513.26" y="209.75" width="66.7" height="66.7"/><rect class="cls-21" x="579.96" y="9.64" width="66.7" height="66.7"/><rect class="cls-22" x="579.96" y="76.35" width="66.7" height="66.7"/><rect class="cls-23" x="579.96" y="143.05" width="66.7" height="66.7"/><rect class="cls-24" x="579.96" y="209.75" width="66.7" height="66.7"/><rect class="cls-25" x="646.67" y="9.64" width="66.7" height="66.7"/><rect class="cls-26" x="646.67" y="76.35" width="66.7" height="66.7"/><rect class="cls-27" x="646.67" y="143.05" width="66.7" height="66.7"/><rect class="cls-28" x="646.67" y="209.75" width="66.7" height="66.7"/><rect class="cls-29" x="713.37" y="9.64" width="66.7" height="66.7"/><rect class="cls-30" x="713.37" y="76.35" width="66.7" height="66.7"/><rect class="cls-31" x="713.37" y="143.05" width="66.7" height="66.7"/><rect class="cls-32" x="713.37" y="209.75" width="66.7" height="66.7"/><rect class="cls-33" x="237.36" y="284.52" width="66.7" height="66.7"/><rect class="cls-34" x="237.36" y="351.22" width="66.7" height="66.7"/><rect class="cls-35" x="237.36" y="417.92" width="66.7" height="66.7"/><rect class="cls-36" x="237.36" y="484.62" width="66.7" height="66.7"/><rect class="cls-37" x="304.06" y="284.52" width="66.7" height="66.7"/><rect class="cls-38" x="304.06" y="351.22" width="66.7" height="66.7"/><rect class="cls-39" x="304.06" y="417.92" width="66.7" height="66.7"/><rect class="cls-40" x="304.06" y="484.62" width="66.7" height="66.7"/><rect class="cls-41" x="370.76" y="284.52" width="66.7" height="66.7"/><rect class="cls-42" x="370.76" y="351.22" width="66.7" height="66.7"/><rect class="cls-43" x="370.76" y="417.92" width="66.7" height="66.7"/><rect class="cls-44" x="370.76" y="484.62" width="66.7" height="66.7"/><rect class="cls-45" x="437.46" y="284.52" width="66.7" height="66.7"/><rect class="cls-46" x="437.46" y="351.22" width="66.7" height="66.7"/><rect class="cls-47" x="437.46" y="417.92" width="66.7" height="66.7"/><rect class="cls-48" x="437.46" y="484.62" width="66.7" height="66.7"/><rect class="cls-49" x="513.26" y="284.52" width="66.7" height="66.7"/><rect class="cls-50" x="513.26" y="351.22" width="66.7" height="66.7"/><rect class="cls-51" x="513.26" y="417.92" width="66.7" height="66.7"/><rect class="cls-52" x="513.26" y="484.62" width="66.7" height="66.7"/><rect class="cls-53" x="579.96" y="284.52" width="66.7" height="66.7"/><rect class="cls-54" x="579.96" y="351.22" width="66.7" height="66.7"/><rect class="cls-55" x="579.96" y="417.92" width="66.7" height="66.7"/><rect class="cls-56" x="579.96" y="484.62" width="66.7" height="66.7"/><rect class="cls-57" x="646.67" y="284.52" width="66.7" height="66.7"/><rect class="cls-58" x="646.67" y="351.22" width="66.7" height="66.7"/><rect class="cls-59" x="646.67" y="417.92" width="66.7" height="66.7"/><rect class="cls-60" x="646.67" y="484.62" width="66.7" height="66.7"/><rect class="cls-61" x="713.37" y="284.52" width="66.7" height="66.7"/><rect class="cls-62" x="713.37" y="351.22" width="66.7" height="66.7"/><rect class="cls-63" x="713.37" y="417.92" width="66.7" height="66.7"/><rect class="cls-64" x="713.37" y="484.62" width="66.7" height="66.7"/><rect class="cls-65" x="50.71" y="70.77" width="52.15" height="52.15"/><rect class="cls-66" x="110.32" y="46.56" width="27.94" height="27.94"/><rect class="cls-67" x="171.6" y="439.23" width="65.77" height="65.77"/><rect class="cls-68" x="77.81" y="440.55" width="41.86" height="41.86"/><rect class="cls-69" x="171.6" y="322.63" width="65.77" height="65.77"/><rect class="cls-70" x="120.78" y="388.4" width="50.83" height="50.83"/><rect class="cls-71" x="106.77" y="122.52" width="65.77" height="65.77"/><rect class="cls-72" x="105.83" y="256.85" width="65.77" height="65.77"/><text class="cls-73" transform="translate(338.65 503.48) scale(0.84 1)">L</text><text class="cls-73" transform="translate(581.95 504.48) scale(0.84 1)">I</text><text class="cls-74" transform="translate(300.73 241.73) scale(1.01 1)">S</text><text class="cls-75" transform="translate(587.61 238.71) scale(0.77 1)">E</text><text class="cls-76" transform="translate(824.32 124.1)">Smart<tspan x="0" y="131.71">Ecosystem for</tspan><tspan class="cls-77" x="0" y="263.41">L</tspan><tspan x="54.44" y="263.41">earning and</tspan><tspan x="0" y="395.12">Inclusion</tspan></text><rect class="cls-78" x="171.87" y="57.17" width="65.77" height="65.77"/><rect class="cls-79" x="171.92" y="188.73" width="65.77" height="65.77"/><rect class="cls-80" x="40.21" y="187.74" width="65.77" height="65.77"/><rect class="cls-81" y="146.63" width="40.14" height="40.14"/><rect class="cls-68" x="81.57" y="332.44" width="41.86" height="41.86"/><rect class="cls-68" x="49.58" y="384.14" width="31.54" height="31.54"/><rect class="cls-68" x="22.51" y="347.06" width="25.38" height="25.38"/></g></g></svg>