<svg xmlns="http://www.w3.org/2000/svg" viewBox="0 0 490 284.88"><defs><style>.cls-1{fill:#ccc;}</style></defs><title>special-education-gc</title><g id="Layer_2" data-name="Layer 2"><g id="Layer_1-2" data-name="Layer 1"><path class="cls-1" d="M245,0,490,96.86,245,193.72,0,96.86ZM472.91,115.73v63.39a27.32,27.32,0,0,0-22.79,0V124.81Zm-74.07,29.38v82.8c0,23.85-68.61,57-153.84,57s-153.84-33.12-153.84-57v-82.8l149.57,59.12a11.37,11.37,0,0,0,8.54,0l149.57-59.12ZM461.51,188a17.1,17.1,0,1,1-17.09,17.1A17.1,17.1,0,0,1,461.51,188Z"/></g></g></svg>