<svg xmlns="http://www.w3.org/2000/svg" viewBox="0 0 545.05 250"><defs><style>.cls-1{fill:#00695c;}.cls-2{fill:none;}.cls-3{fill:#80cbc4;}.cls-4{fill:#26a69a;}.cls-5{fill:#4fc3f7;}.cls-6{fill:#fff;}</style></defs><title>support_6</title><g id="Layer_2" data-name="Layer 2"><g id="Layer_1-2" data-name="Layer 1"><circle class="cls-1" cx="83.5" cy="47.5" r="27.5"/><path class="cls-2" d="M101,109c.27.27.61.6,1,1A10,10,0,0,0,99.6,95.72C97.17,99.72,97.8,105,101,109Z"/><path class="cls-3" d="M101,109c-3.2-4-3.83-9.28-1.4-13.28A9.87,9.87,0,0,0,94,94a10,10,0,1,0,8,16C101.61,109.6,101.27,109.27,101,109Z"/><circle class="cls-4" cx="120.5" cy="79.5" r="4.5"/><path class="cls-5" d="M226.3,0c-4.1,13.37-2.65,28.41,3.8,38.51,6,9.41,16.14,14.2,24,10.5,6-2.79,7.28-8.87,11.38-14,12.16-15.2,39.77-10.59,56.9,5.25,26.81,24.78,22.4,71.9,40.47,75.27,9.85,1.84,20.59-10.4,25.29-15.75C398.51,88,401.5,75.08,413.47,70a26.91,26.91,0,0,1,10.11-1.75c28,.76,53.7,86.33,78.41,77,31.36-11.82,42.1-80.68,43-115.53.11-4.28.06-7.89,0-10.5L527.28,0h-301Z"/><path class="cls-6" d="M215.83,250c.11-1.15.17-2.32.17-3.5a36.5,36.5,0,0,0-73,0c0,1.18.06,2.35.17,3.5Z"/><rect class="cls-2" y="8" width="38" height="233"/></g></g></svg>