<svg xmlns="http://www.w3.org/2000/svg" viewBox="0 0 412.65 283"><defs><style>.cls-1{fill:#fff;}</style></defs><title>text-and-image-w</title><g id="Layer_2" data-name="Layer 2"><g id="Layer_1-2" data-name="Layer 1"><path class="cls-1" d="M184.54,139.11a14.8,14.8,0,0,0-1,10.44l19.35,64.92V129.19l-10.44,3.05A14.82,14.82,0,0,0,184.54,139.11Z"/><path class="cls-1" d="M220.44,273A13.73,13.73,0,0,0,234.69,283a10.94,10.94,0,0,0,2.8-.51l57.29-17.06H218.15Z"/><path class="cls-1" d="M399.16,99.4h-21.9l-2-7.13A13.72,13.72,0,0,0,361,82.34a11,11,0,0,0-2.8.51L302.67,99.4H226.29c-7.38,0-13.49,6.36-13.49,14V242.48c0,7.64,6.11,14,13.49,14H399.16c7.38,0,13.49-6.36,13.49-14V113.4C412.65,105.76,406.54,99.4,399.16,99.4ZM226.29,109.58H399.16a3.67,3.67,0,0,1,3.31,3.82v96.24L350,146.5a8.63,8.63,0,0,0-13.49,0L295.8,196.91a8.65,8.65,0,0,1-13.5,0l-17.82-21.64a8.63,8.63,0,0,0-13.49,0l-28,33.6V113.4A3.67,3.67,0,0,1,226.29,109.58Z"/><circle class="cls-1" cx="289.69" cy="139.88" r="17.82"/><path class="cls-1" d="M183,35.52H164.23V21.19a2.35,2.35,0,0,0-2.35-2.35H109.59a2.36,2.36,0,0,0-2.35,2.35V162.05a2.35,2.35,0,0,0,2.35,2.34h18.28V183H55.13V164.42H73.41a2.36,2.36,0,0,0,2.35-2.35V21.21a2.36,2.36,0,0,0-2.35-2.35H21.12a2.36,2.36,0,0,0-2.35,2.35V35.54H0V0H183Z"/></g></g></svg>