<svg xmlns="http://www.w3.org/2000/svg" viewBox="0 0 95.21 60.6"><title>tutor</title><g id="Layer_2" data-name="Layer 2"><g id="Layer_1-2" data-name="Layer 1"><path d="M90.21,0H25a13.48,13.48,0,0,1,3.6,9.1,13.77,13.77,0,0,1-2.1,7.2h23.1a6.49,6.49,0,0,1,6.5,6.5v1.5a6.47,6.47,0,0,1-5.6,6.4l-20,2.6-2.3,17-.7,10.3h36.2V59.2a2.9,2.9,0,0,1,2.9-2.9h8.6a2.9,2.9,0,0,1,2.9,2.9v1.4h12.3a4.8,4.8,0,0,0,4.8-4.8V4.7A5.1,5.1,0,0,0,90.21,0Z"/><path d="M23.32,60,24,49.9l2.6-19.1A1.7,1.7,0,0,1,28,29.4l21.9-2.9a2.17,2.17,0,0,0,1.9-2.2V22.8a2.22,2.22,0,0,0-2.2-2.2H8.21l-2,.1A6.58,6.58,0,0,0,0,27.6l1.3,21.2a5.24,5.24,0,0,0,5.2,4.9h.3L7.23,60"/><circle cx="15.21" cy="9.2" r="9.1"/></g></g></svg>