<svg xmlns="http://www.w3.org/2000/svg" viewBox="0 0 348.38 266.9"><defs><style>.cls-1{fill:#333;}</style></defs><title>video-g3</title><g id="Layer_2" data-name="Layer 2"><g id="Layer_1-2" data-name="Layer 1"><g id="Layer_2-2" data-name="Layer 2"><g id="Layer_1-2-2" data-name="Layer 1-2"><path class="cls-1" d="M324.55,0H24.11C7.76,0,0,7.76,0,24.11V242.79c0,16.35,7.76,24.11,24.11,24.11H324.27c16.35,0,24.11-7.76,24.11-24.11V24.11C348.38,7.76,340.9,0,324.55,0ZM39.63,243.62H12.75v-20H39.63Zm0-39.91H12.75v-20H39.63Zm0-39.63H12.75v-20H39.63Zm0-39.91H12.75v-20H39.63Zm0-39.91H12.75v-20H39.63Zm0-39.64H12.75V24.67H39.63ZM235,142.73,142.73,196a10.7,10.7,0,0,1-14.63-3.88,10.83,10.83,0,0,1-1.44-5.27V80.37a10.61,10.61,0,0,1,16.07-9.14L235,124.44a10.44,10.44,0,0,1,0,18.29Zm99.8,100.89H307.92v-20H334.8Zm0-39.91H307.92v-20H334.8Zm0-39.63H307.92v-20H334.8Zm0-39.91H307.92v-20H334.8Zm0-39.91H307.92v-20H334.8Zm0-39.64H307.92V24.67H334.8Z"/></g></g></g></g></svg>