<svg xmlns="http://www.w3.org/2000/svg" viewBox="0 0 391.4 299.86"><defs><style>.cls-1{fill:#999;}</style></defs><title>video-g_1</title><g id="Layer_2" data-name="Layer 2"><g id="Layer_1-2" data-name="Layer 1"><path class="cls-1" d="M364.62,0H27.09C8.72,0,0,8.72,0,27.09V272.77c0,18.37,8.72,27.09,27.09,27.09H364.31c18.37,0,27.09-8.72,27.09-27.09V27.09C391.4,8.72,383,0,364.62,0ZM44.53,273.7H14.32V251.28H44.53Zm0-44.84H14.32V206.44H44.53Zm0-44.53H14.32V161.92H44.53Zm0-44.83H14.32V117.08H44.53Zm0-44.84H14.32V72.24H44.53Zm0-44.53H14.32V27.71H44.53ZM264.05,160.36,160.36,220.14a12,12,0,0,1-18.06-10.27V90.3A11.93,11.93,0,0,1,160.36,80l103.69,59.79C272.14,144.17,272.14,155.69,264.05,160.36ZM376.14,273.7h-30.2V251.28h30.2Zm0-44.84h-30.2V206.44h30.2Zm0-44.53h-30.2V161.92h30.2Zm0-44.83h-30.2V117.08h30.2Zm0-44.84h-30.2V72.24h30.2Zm0-44.53h-30.2V27.71h30.2Z"/></g></g></svg>